<?xml version="1.0" standalone="no"?>
<!DOCTYPE svg PUBLIC "-//W3C//DTD SVG 20010904//EN"
 "http://www.w3.org/TR/2001/REC-SVG-20010904/DTD/svg10.dtd">
<svg version="1.0" xmlns="http://www.w3.org/2000/svg"
 width="1480.000000pt" height="1480.000000pt" viewBox="0 0 1480.000000 1480.000000"
 preserveAspectRatio="xMidYMid meet">

<g transform="translate(0.000000,1480.000000) scale(0.100000,-0.100000)"
fill="#000000" stroke="none">
<path d="M6768 13751 c-58 -19 -97 -52 -122 -104 -36 -74 -41 -123 -22 -191
18 -60 25 -68 188 -221 60 -56 66 -66 87 -140 13 -44 30 -93 38 -108 25 -50
87 -110 138 -133 118 -56 230 -6 266 118 38 131 30 215 -34 386 -46 121 -88
191 -162 264 -83 83 -177 128 -276 133 -41 3 -86 1 -101 -4z m223 -73 c132
-65 241 -216 304 -421 24 -75 27 -100 22 -166 -12 -181 -105 -256 -234 -189
-65 33 -104 88 -137 194 -36 112 -63 150 -154 219 -87 67 -123 118 -130 185
-6 68 4 114 35 151 37 44 76 58 159 59 60 0 81 -5 135 -32z"/>
<path d="M8163 13720 c-61 -14 -145 -64 -186 -111 -45 -50 -113 -178 -145
-274 -37 -108 -109 -368 -138 -490 -37 -160 -40 -310 -7 -371 54 -101 130
-143 413 -227 1381 -411 1728 -508 1825 -510 163 -2 236 77 338 368 105 302
175 562 184 687 13 175 -52 253 -297 356 -152 64 -235 91 -1004 328 -798 246
-886 268 -983 244z m236 -70 c68 -17 244 -68 390 -114 146 -46 293 -92 326
-101 33 -10 61 -19 63 -20 5 -5 -59 -209 -68 -219 -11 -11 -122 26 -131 45 -3
8 -11 28 -16 44 -11 38 -42 43 -109 17 l-50 -18 -269 83 c-178 55 -272 80
-279 73 -17 -17 4 -27 144 -70 74 -23 192 -59 262 -81 l126 -39 17 -78 c10
-42 28 -108 40 -147 13 -38 22 -71 21 -72 -1 -1 -31 7 -66 18 -354 111 -614
189 -630 189 -11 0 -20 -6 -20 -14 0 -8 48 -28 133 -53 72 -23 229 -71 347
-108 118 -37 226 -70 240 -74 30 -8 71 -81 63 -112 -3 -11 -22 -28 -42 -39
-20 -10 -55 -32 -79 -48 -42 -28 -46 -29 -85 -17 -23 7 -114 36 -202 63 -362
114 -429 132 -437 119 -11 -18 -2 -22 107 -55 55 -17 168 -51 250 -77 83 -26
180 -56 217 -68 l68 -20 -92 -96 c-50 -53 -95 -98 -100 -99 -4 -2 -128 33
-274 78 -190 58 -270 78 -277 71 -7 -7 -7 -14 -1 -19 5 -5 125 -44 268 -87
241 -74 259 -81 268 -106 6 -19 24 -33 56 -47 83 -35 92 -36 116 -13 l23 21
65 -20 65 -20 -31 -105 c-18 -57 -34 -107 -37 -110 -5 -5 -762 215 -855 248
-153 55 -206 125 -207 272 -1 115 57 374 140 630 79 243 140 337 256 395 78
39 126 39 286 0z m852 -258 c14 -6 5 -43 -65 -272 -60 -192 -86 -266 -98 -268
-9 -2 -19 1 -22 7 -4 5 18 90 48 188 30 98 67 217 81 266 14 48 29 87 33 86 4
0 14 -3 23 -7z m208 -63 c570 -171 818 -271 896 -361 72 -85 59 -217 -61 -623
-101 -337 -178 -495 -266 -541 -39 -20 -148 -17 -248 6 -118 29 -858 244 -866
253 -3 3 9 53 27 111 26 86 36 106 48 101 9 -4 108 -36 221 -73 113 -36 322
-105 465 -153 156 -52 264 -83 269 -78 6 6 6 13 0 19 -10 10 -347 125 -736
251 -120 39 -218 75 -218 81 0 7 16 64 36 127 31 98 38 113 48 97 45 -75 76
-113 141 -175 41 -39 81 -71 89 -71 18 0 56 60 56 88 0 12 -15 32 -35 48 -19
14 -35 30 -35 34 0 4 169 -48 376 -117 206 -69 378 -122 381 -119 20 20 -42
45 -409 166 -244 80 -412 140 -425 153 -13 11 -41 48 -64 83 -33 52 -39 66
-30 83 6 11 11 28 11 39 0 19 37 42 69 42 10 0 216 -65 459 -145 242 -80 445
-145 451 -145 20 0 12 27 -11 36 -13 6 -206 70 -430 144 -288 95 -403 137
-392 143 9 5 68 22 132 38 63 15 119 34 123 41 4 7 5 32 2 55 -3 24 -2 43 3
43 5 0 157 -50 338 -110 220 -73 333 -107 340 -100 6 6 6 13 1 19 -6 5 -226
80 -490 167 -264 86 -481 158 -483 159 -5 4 69 225 75 225 4 0 68 -18 142 -41z
m-527 -103 c10 -49 38 -349 33 -354 -13 -14 -92 194 -115 301 -14 68 -10 84
22 90 43 8 52 3 60 -37z m162 -87 c-2 -27 -68 -239 -75 -239 -6 0 -13 53 -25
207 l-7 81 54 -18 c32 -10 54 -23 53 -31z m259 -69 c54 -17 96 -34 94 -37 -3
-2 -31 -11 -64 -20 -32 -8 -91 -30 -130 -48 -40 -19 -73 -30 -73 -25 0 7 32
116 46 159 2 7 10 11 17 9 6 -3 56 -20 110 -38z m131 -96 c12 -32 5 -42 -32
-48 -64 -10 -208 -54 -262 -80 -61 -30 -65 -17 -7 25 55 41 153 86 225 104 74
17 69 17 76 -1z m-425 -179 c36 -18 45 -40 25 -60 -21 -21 -46 -19 -78 6 -28
22 -32 39 -14 57 16 16 33 15 67 -3z m-151 -92 c-51 -59 -154 -192 -197 -257
-29 -42 -54 -76 -57 -76 -18 0 -74 31 -74 42 0 39 173 212 279 279 51 33 71
37 49 12z m132 -42 c0 -9 -39 -143 -87 -298 -72 -237 -89 -283 -105 -283 -10
0 -18 7 -18 16 0 16 167 571 176 586 8 12 34 -4 34 -21z m-99 -24 c-16 -16
-26 0 -10 19 9 11 15 12 17 4 2 -6 -1 -17 -7 -23z m208 -72 c29 -38 77 -93
107 -121 39 -36 53 -55 48 -67 -3 -9 -10 -17 -14 -17 -4 0 -37 32 -74 70 -59
63 -126 170 -126 201 0 15 -3 19 59 -66z m-225 27 c9 -15 -64 -232 -78 -232
-17 0 -106 31 -106 37 0 7 32 54 94 136 46 61 76 81 90 59z"/>
<path d="M5785 13594 c-139 -34 -308 -142 -372 -237 -80 -120 -64 -276 35
-326 91 -46 169 -32 296 53 111 74 172 91 268 71 84 -18 124 -19 169 -3 82 27
129 91 129 173 0 91 -85 202 -193 251 -54 24 -76 29 -167 31 -68 1 -126 -3
-165 -13z m263 -42 c154 -49 254 -186 207 -286 -35 -74 -121 -97 -251 -67 -56
13 -68 13 -128 -3 -36 -10 -89 -33 -118 -51 -29 -19 -73 -46 -97 -61 -50 -32
-122 -42 -175 -24 -83 27 -107 137 -51 238 68 124 250 235 430 261 93 13 119
12 183 -7z"/>
<path d="M4542 12885 c-18 -8 -47 -24 -63 -36 -22 -16 -49 -22 -112 -25 -189
-11 -231 -18 -255 -41 -17 -18 -34 -23 -71 -23 -63 0 -87 -20 -111 -90 l-18
-54 -84 -1 c-71 0 -91 -5 -136 -28 -113 -59 -182 -152 -197 -264 l-7 -53 -54
0 c-89 0 -154 -43 -183 -122 -22 -58 -26 -62 -94 -79 -77 -19 -122 -45 -170
-98 -54 -60 -71 -116 -64 -217 5 -82 4 -86 -18 -96 -13 -6 -29 -23 -35 -38 -6
-16 -22 -38 -36 -50 -13 -13 -29 -39 -35 -59 -6 -20 -19 -45 -29 -56 -30 -34
-42 -65 -35 -94 4 -19 1 -32 -11 -41 -29 -25 -36 -59 -19 -93 15 -29 14 -33
-5 -57 -11 -14 -27 -37 -35 -53 -15 -26 -14 -29 8 -51 14 -14 43 -30 66 -37
45 -13 49 -20 25 -40 -8 -7 -28 -36 -42 -63 -24 -45 -27 -62 -27 -146 1 -77 5
-103 22 -135 33 -62 94 -119 155 -145 45 -18 58 -29 72 -61 29 -65 106 -109
188 -109 57 0 130 32 528 229 429 213 778 381 914 440 123 52 689 269 841 321
255 88 379 141 509 220 103 61 160 121 179 188 9 27 31 72 51 99 82 115 107
216 66 273 -11 15 -25 45 -32 66 -10 29 -24 44 -55 62 -24 13 -50 36 -59 51
-9 16 -34 36 -55 45 -21 9 -41 25 -44 36 -14 45 -45 70 -86 70 -44 0 -79 27
-111 88 -19 36 -42 48 -113 57 -50 7 -60 15 -146 114 -19 22 -26 23 -88 18
-55 -5 -74 -3 -111 15 -34 16 -62 21 -115 20 -44 -1 -82 4 -102 13 -20 10 -43
13 -59 9 -19 -5 -40 0 -71 17 l-44 24 -39 -21 -39 -22 -7 22 c-9 31 -64 86
-101 102 -42 18 -159 17 -201 -1z m199 -50 c26 -14 59 -51 59 -67 0 -4 -21 2
-46 14 -60 26 -86 15 -108 -44 -8 -24 -24 -65 -34 -93 -16 -45 -21 -50 -55
-56 -41 -6 -47 -2 -67 51 -7 19 -22 47 -32 61 -17 26 -17 27 5 59 60 89 185
122 278 75z m-332 -75 c-6 -16 -17 -30 -25 -30 -8 0 -31 -16 -53 -35 -34 -31
-45 -35 -86 -33 -42 1 -52 -2 -76 -30 -38 -43 -59 -51 -106 -45 -25 3 -43 1
-47 -6 -9 -15 -27 -13 -49 3 -16 12 -16 16 -2 57 24 66 40 79 100 79 39 0 60
6 81 23 17 13 44 23 69 24 40 2 198 19 202 21 1 1 -3 -11 -8 -28z m352 -30
c56 -25 86 -25 128 1 33 20 35 20 72 4 25 -12 49 -15 72 -11 23 4 48 0 78 -13
34 -15 53 -18 87 -11 36 6 51 4 88 -16 37 -19 60 -24 124 -24 74 0 80 -2 97
-27 45 -66 78 -91 129 -97 69 -9 94 -24 124 -76 28 -48 76 -80 122 -80 22 0
32 -8 48 -40 13 -26 32 -45 54 -54 18 -7 42 -27 54 -43 11 -16 37 -38 57 -49
26 -14 46 -37 71 -84 19 -35 34 -73 34 -83 0 -18 -43 -110 -63 -135 -8 -11
-14 1 -23 48 -22 104 -57 166 -142 249 -123 122 -298 227 -518 314 -194 76
-404 110 -650 105 -85 -2 -154 0 -154 3 0 9 38 118 45 129 9 14 17 13 66 -10z
m-314 -100 c12 -25 18 -48 15 -51 -4 -3 -52 -20 -107 -37 -222 -69 -537 -258
-637 -382 -17 -22 -35 -40 -40 -40 -10 0 -11 141 0 156 4 6 23 14 43 18 24 4
48 20 73 46 33 36 42 40 85 40 56 0 79 19 109 90 25 59 36 67 106 72 51 4 62
9 92 40 30 32 38 36 72 31 33 -4 44 0 81 31 57 48 79 44 108 -14z m-521 -77
c22 -10 40 -18 41 -18 2 -1 -11 -27 -28 -58 l-31 -57 -52 0 c-49 0 -55 -3 -89
-40 -26 -29 -43 -40 -64 -40 -61 0 -68 -15 -70 -160 -1 -73 -5 -135 -7 -138
-13 -13 -36 12 -62 65 -54 115 -42 250 30 345 86 112 220 153 332 101z m1039
7 c242 -18 407 -62 624 -167 219 -107 391 -244 445 -354 39 -81 52 -166 39
-246 -28 -161 -143 -233 -698 -438 -99 -37 -281 -104 -405 -150 -124 -46 -273
-103 -331 -128 -155 -65 -614 -286 -987 -474 -178 -90 -327 -163 -332 -163 -5
0 -2 19 6 43 70 199 99 387 119 797 25 485 184 799 520 1020 243 160 466 239
728 259 56 5 109 9 117 10 8 0 78 -4 155 -9z m-1491 -336 c9 -3 16 -14 16 -23
1 -9 9 -39 19 -68 l17 -51 -32 -7 c-41 -7 -79 -51 -88 -101 l-7 -37 -38 37
c-20 20 -42 36 -49 36 -16 0 -32 34 -32 70 0 92 112 175 194 144z m-224 -198
c0 -16 -11 -20 -75 -31 -55 -9 -86 -27 -128 -74 -47 -52 -61 -104 -48 -177 6
-30 13 -59 16 -65 4 -5 3 -14 0 -19 -13 -20 -34 10 -46 66 -30 134 48 253 196
300 54 17 85 17 85 0z m301 -8 c22 -6 39 -15 39 -19 0 -4 -20 -47 -44 -96 -98
-193 -130 -351 -150 -738 -11 -204 -21 -300 -40 -395 -32 -156 -53 -230 -68
-230 -13 0 -149 99 -195 143 -18 17 -33 37 -33 45 0 8 16 31 36 50 l37 36 -7
73 -6 74 41 40 41 40 -7 74 -7 74 78 38 c96 46 108 68 80 141 -10 26 -29 78
-43 115 l-26 68 38 39 c33 34 38 45 38 84 -1 25 -4 59 -8 76 -6 29 -2 36 44
78 41 38 53 56 57 87 9 69 14 83 30 99 19 19 25 19 75 4z m-204 -96 l32 -36
-40 -37 c-34 -32 -39 -41 -39 -81 l0 -45 -72 5 c-40 3 -76 10 -80 16 -4 6 -8
32 -8 58 0 37 6 55 33 90 18 23 48 53 66 65 40 27 59 20 108 -35z m-228 -28
c-16 -31 -20 -53 -17 -111 3 -66 2 -73 -19 -82 -27 -12 -31 -6 -39 53 -9 59
17 127 59 160 17 14 33 24 34 22 2 -1 -7 -20 -18 -42z m181 -224 c12 -8 8 -16
-23 -48 -48 -49 -48 -83 -1 -202 19 -50 34 -98 32 -107 -3 -18 -19 -28 -100
-64 -60 -26 -75 -60 -59 -125 7 -26 10 -49 7 -51 -8 -8 -91 54 -121 89 -73 86
-103 230 -71 340 21 73 86 141 154 162 54 17 160 20 182 6z m-345 -59 c3 -5
-4 -27 -15 -49 -53 -101 -47 -234 14 -355 l34 -67 -23 -6 c-12 -3 -38 -21 -56
-40 -29 -29 -39 -34 -81 -34 -56 0 -118 23 -118 43 0 7 14 26 30 42 33 31 36
50 18 90 -10 21 -9 31 5 55 9 15 17 44 17 63 0 19 8 45 19 58 10 13 27 44 38
69 11 25 27 51 37 59 9 8 23 29 31 48 13 32 37 43 50 24z m105 -533 c15 -13
36 -28 46 -34 17 -10 17 -12 -4 -39 -20 -25 -22 -39 -20 -100 2 -50 -1 -77
-11 -89 -17 -20 -31 -21 -31 -1 0 31 -41 96 -75 118 -49 32 -61 58 -45 98 14
33 62 69 94 69 10 0 31 -10 46 -22z m-190 -88 c0 -5 -16 -30 -35 -55 -77 -101
-70 -219 19 -313 17 -19 43 -40 59 -48 27 -15 37 -44 15 -44 -25 0 -117 60
-141 92 -35 46 -61 140 -53 191 10 60 38 118 76 155 33 31 60 42 60 22z m73
-102 c44 -42 67 -91 67 -146 0 -13 7 -36 15 -52 9 -17 11 -30 6 -30 -5 0 -23
-13 -41 -30 -30 -28 -33 -29 -59 -15 -60 30 -111 114 -111 180 1 36 51 135 70
135 4 0 28 -19 53 -42z m239 -331 l97 -73 -24 -41 c-65 -108 -240 -83 -279 40
-13 40 58 148 97 147 7 0 56 -33 109 -73z"/>
<path d="M3830 12535 c-10 -12 -10 -21 0 -45 14 -33 25 -38 34 -14 17 43 -9
89 -34 59z"/>
<path d="M3701 12496 c-16 -19 6 -78 28 -74 20 4 26 40 11 67 -13 24 -23 26
-39 7z"/>
<path d="M3593 12404 c-8 -22 9 -48 36 -52 25 -4 27 14 5 46 -18 26 -32 28
-41 6z"/>
<path d="M4925 12265 c0 -26 4 -44 10 -42 6 2 10 21 10 42 0 21 -4 40 -10 42
-6 2 -10 -16 -10 -42z"/>
<path d="M5509 12205 c-1 -6 0 -14 1 -20 1 -5 2 -25 2 -42 -1 -18 3 -33 8 -33
11 0 14 20 11 60 -2 25 -20 53 -22 35z"/>
<path d="M4079 12123 c-1 -5 0 -12 1 -18 1 -5 2 -25 2 -42 -1 -18 2 -33 7 -33
15 0 22 47 11 74 -9 25 -19 34 -21 19z"/>
<path d="M4584 11975 c1 -25 5 -44 11 -42 13 5 18 33 11 63 -10 39 -23 27 -22
-21z"/>
<path d="M5583 11776 c4 -10 7 -34 7 -54 0 -25 3 -33 11 -25 15 15 7 85 -10
91 -10 3 -12 0 -8 -12z"/>
<path d="M4956 11673 c4 -10 7 -34 6 -53 -2 -33 -1 -34 13 -16 18 23 19 40 5
67 -13 24 -35 26 -24 2z"/>
<path d="M3892 11565 c1 -44 10 -56 23 -34 9 14 -3 79 -15 79 -4 0 -8 -20 -8
-45z"/>
<path d="M4415 11373 c3 -50 18 -65 23 -24 5 29 -6 71 -17 71 -5 0 -7 -21 -6
-47z"/>
<path d="M3774 11010 c0 -27 3 -50 8 -50 12 0 21 47 14 75 -11 41 -22 28 -22
-25z"/>
<path d="M3120 11587 c0 -24 37 -67 58 -67 18 0 15 56 -4 74 -24 25 -54 20
-54 -7z"/>
<path d="M3057 11473 c-11 -11 -8 -22 13 -43 24 -24 80 -27 80 -5 0 35 -70 72
-93 48z"/>
<path d="M3070 11331 c-35 -10 -40 -48 -6 -57 36 -9 96 13 96 36 0 6 -60 33
-64 29 -1 -1 -12 -4 -26 -8z"/>
<path d="M11000 12448 c-77 -30 -160 -114 -189 -192 -66 -178 13 -376 181
-451 52 -24 77 -29 143 -29 66 0 91 5 143 29 80 36 152 112 182 193 30 79 26
206 -9 272 -42 81 -87 127 -163 164 -64 33 -78 36 -152 35 -57 0 -97 -6 -136
-21z m228 -35 c122 -39 206 -156 206 -288 1 -170 -128 -299 -299 -299 -85 0
-143 24 -208 83 -166 153 -102 427 116 502 66 23 116 23 185 2z"/>
<path d="M11029 12277 c-54 -36 -79 -82 -79 -144 0 -105 67 -174 169 -175 149
-1 230 169 135 282 -37 43 -75 60 -137 60 -40 0 -63 -6 -88 -23z m152 -32 c59
-31 86 -115 56 -175 -7 -13 -28 -35 -46 -47 -61 -41 -143 -23 -181 40 -68 111
55 242 171 182z"/>
<path d="M6895 12438 c-28 -24 -38 -60 -201 -663 -58 -218 -124 -544 -124
-617 0 -19 10 -40 29 -59 l29 -29 141 0 c139 0 240 11 657 70 569 80 733 109
786 136 39 20 62 58 54 90 -13 50 -142 171 -506 475 -102 85 -232 191 -290
236 -58 45 -175 137 -260 204 -239 189 -263 201 -315 157z m136 -81 c41 -29
121 -91 179 -138 58 -47 167 -134 243 -192 302 -235 731 -603 756 -651 8 -13
11 -31 8 -40 -9 -24 -128 -54 -319 -81 -359 -51 -535 -76 -628 -90 -138 -22
-473 -55 -550 -55 -94 0 -105 14 -96 116 10 129 61 353 165 734 102 373 114
415 133 437 17 21 32 16 109 -40z"/>
<path d="M7082 11908 c-13 -13 -16 -38 -4 -38 4 0 13 9 19 20 14 22 2 35 -15
18z"/>
<path d="M7472 11720 c-14 -37 4 -52 18 -15 12 33 13 45 1 45 -5 0 -14 -13
-19 -30z"/>
<path d="M7216 11583 c-9 -10 -7 -55 3 -49 12 8 21 45 11 51 -4 2 -10 2 -14
-2z"/>
<path d="M7701 11512 c-14 -26 -14 -42 -1 -42 11 0 25 48 17 56 -3 3 -10 -3
-16 -14z"/>
<path d="M6915 11389 c-4 -11 -4 -23 0 -27 7 -7 25 17 25 36 0 20 -18 14 -25
-9z"/>
<path d="M7397 11378 c-4 -12 -4 -24 -1 -27 6 -7 24 20 24 37 0 21 -17 13 -23
-10z"/>
<path d="M11766 11765 c-181 -68 -222 -109 -191 -191 9 -23 43 -72 76 -108
l60 -65 -21 -21 c-36 -36 -26 -101 42 -274 6 -16 24 -34 41 -41 27 -11 34 -25
70 -136 34 -106 41 -137 41 -214 1 -107 -11 -139 -110 -287 -101 -152 -109
-174 -108 -298 0 -67 6 -128 18 -170 25 -94 123 -352 331 -875 196 -493 262
-648 295 -696 44 -60 132 -83 225 -58 44 12 798 302 913 351 120 51 164 123
141 229 -20 92 -562 1490 -621 1601 -34 64 -110 141 -178 180 -25 15 -101 43
-169 63 -221 65 -239 80 -338 282 l-74 155 16 34 c16 33 15 37 -20 142 -42
124 -72 162 -130 162 l-35 0 0 76 c0 147 -32 204 -114 204 -23 -1 -92 -20
-160 -45z m210 -21 c13 -18 19 -55 22 -129 l5 -103 -69 -22 c-38 -13 -93 -34
-123 -47 l-55 -23 -34 32 c-101 96 -133 165 -94 201 37 33 251 115 304 116 19
1 33 -7 44 -25z m133 -271 c23 -20 87 -193 79 -215 -5 -11 -286 -126 -376
-153 -20 -6 -26 0 -51 57 -16 35 -34 87 -42 116 -13 51 -12 53 12 76 25 25
298 135 335 136 12 0 31 -8 43 -17z m81 -340 c58 -142 123 -264 162 -303 53
-53 70 -61 203 -99 196 -57 292 -114 354 -210 34 -53 117 -258 416 -1025 178
-459 225 -593 225 -644 0 -74 -48 -103 -405 -243 -115 -45 -295 -116 -400
-157 -159 -62 -202 -75 -266 -79 -74 -5 -75 -5 -108 27 -53 54 -77 106 -316
700 -265 659 -333 852 -351 1007 -10 78 22 168 101 286 36 54 74 115 84 135
54 108 53 237 -4 415 -20 65 -35 120 -32 123 5 6 297 122 308 123 3 1 16 -25
29 -56z"/>
<path d="M12331 10484 c-144 -31 -288 -130 -370 -253 -63 -95 -76 -135 -75
-231 l0 -85 148 -370 c81 -203 166 -417 189 -475 74 -189 113 -205 316 -124
255 102 607 247 642 264 43 22 64 66 55 113 -6 28 -332 840 -391 972 -12 28
-36 67 -53 86 -87 99 -281 142 -461 103z m275 -47 c76 -20 142 -62 174 -113
15 -24 66 -140 113 -257 48 -117 132 -323 188 -458 111 -266 124 -315 91 -345
-31 -29 -756 -324 -796 -324 -20 0 -40 8 -51 20 -19 21 -365 876 -392 969 -28
97 3 201 95 317 46 59 147 138 212 166 103 46 249 56 366 25z"/>
<path d="M10835 11430 c-181 -24 -603 -108 -970 -194 -136 -31 -563 -126 -994
-221 -90 -20 -175 -42 -190 -49 -37 -20 -61 -49 -122 -146 -41 -66 -54 -96
-57 -136 -9 -105 18 -131 523 -509 907 -679 1195 -875 1372 -936 85 -29 176
-35 253 -15 111 29 141 53 227 184 161 246 262 477 332 761 60 239 66 300 65
626 0 404 -24 541 -105 610 -60 49 -115 54 -334 25z m248 -34 c86 -31 112 -83
138 -284 59 -456 -8 -909 -201 -1352 -41 -96 -159 -310 -169 -310 -3 1 -18 18
-33 40 -39 56 -95 94 -338 226 -519 284 -626 351 -1329 837 -413 286 -471 328
-471 347 0 19 48 38 150 60 153 31 839 183 1095 241 382 88 575 128 760 159
338 56 341 56 398 36z m-2280 -654 c199 -146 305 -219 707 -494 339 -231 449
-299 690 -428 163 -87 367 -203 486 -276 99 -61 146 -134 115 -183 -7 -11 -14
-10 -40 8 -17 12 -118 62 -224 110 -201 91 -221 102 -376 219 -52 39 -153 101
-225 138 -262 134 -369 204 -516 339 -43 40 -118 99 -167 131 -140 93 -271
194 -373 289 -52 48 -136 115 -187 148 l-92 61 17 28 c9 15 18 28 20 28 1 0
76 -53 165 -118z m-174 -9 c65 -38 147 -101 237 -185 110 -102 164 -146 274
-218 125 -83 199 -140 290 -224 108 -99 194 -157 370 -248 203 -106 250 -134
373 -227 109 -82 207 -137 352 -196 110 -45 225 -104 225 -116 0 -15 -74 -47
-135 -58 -140 -26 -282 34 -625 263 -176 117 -1091 795 -1315 973 -86 69 -135
131 -135 170 0 25 28 93 38 93 3 0 26 -12 51 -27z"/>
<path d="M10398 11043 c-154 -208 -238 -329 -238 -343 0 -28 29 2 122 128 56
75 139 188 185 249 46 62 83 117 83 123 0 34 -43 -10 -152 -157z"/>
<path d="M10731 10861 c-133 -181 -241 -334 -241 -340 0 -32 35 3 120 121 52
73 159 219 238 326 131 179 157 222 133 222 -5 0 -117 -148 -250 -329z"/>
<path d="M9972 11073 c-109 -149 -132 -193 -103 -193 6 0 143 196 165 237 3 6
2 14 -3 17 -5 3 -31 -24 -59 -61z"/>
<path d="M9546 10979 c-33 -39 -52 -76 -43 -85 10 -10 24 4 52 51 33 58 28 78
-9 34z"/>
<path d="M9166 10848 c-51 -81 -67 -116 -56 -123 10 -6 110 141 110 163 0 26
-22 10 -54 -40z"/>
<path d="M11072 10723 c-10 -16 -43 -64 -74 -108 -30 -44 -84 -123 -119 -175
-36 -52 -99 -144 -141 -205 -229 -335 -226 -330 -193 -323 13 3 565 802 565
819 0 21 -21 16 -38 -8z"/>
<path d="M9346 10709 c-36 -42 -58 -87 -47 -93 13 -8 91 94 91 118 0 15 -21 3
-44 -25z"/>
<path d="M9677 10613 c-95 -127 -110 -153 -84 -153 7 0 44 43 82 97 85 116 98
140 86 148 -6 3 -43 -38 -84 -92z"/>
<path d="M9976 10429 c-56 -85 -76 -123 -68 -131 8 -8 29 18 75 89 73 113 87
137 87 152 0 27 -21 3 -94 -110z"/>
<path d="M10301 10232 c-50 -76 -91 -144 -91 -151 0 -30 30 3 112 125 80 118
102 164 79 164 -4 0 -49 -62 -100 -138z"/>
<path d="M2148 10900 c-102 -30 -189 -148 -233 -312 -24 -89 -17 -269 12 -344
39 -99 114 -164 189 -164 133 1 269 191 293 412 29 260 -98 457 -261 408z m59
-95 c-3 -33 -22 -90 -46 -143 -73 -159 -73 -157 -65 -348 4 -106 3 -173 -3
-177 -17 -11 -71 31 -98 76 -69 118 -67 308 6 462 48 102 132 185 188 185 23
0 24 -2 18 -55z m134 -74 c18 -45 22 -78 22 -166 0 -127 -27 -228 -84 -316
-32 -50 -99 -109 -124 -109 -8 0 -14 45 -18 154 -7 170 1 224 49 318 39 77 64
156 64 202 l0 40 35 -34 c19 -19 45 -59 56 -89z"/>
<path d="M5883 10484 c-298 -36 -623 -144 -664 -221 -24 -44 -18 -368 10 -524
56 -325 141 -533 296 -726 75 -93 152 -161 280 -246 162 -107 297 -164 516
-221 177 -45 312 -60 490 -53 249 9 431 52 635 152 258 126 406 283 573 607
145 280 268 669 247 780 -16 87 -160 173 -445 269 -283 94 -496 132 -1020 179
-267 24 -737 26 -918 4z m792 -34 c313 -20 699 -72 903 -121 248 -61 520 -171
600 -244 62 -56 57 -92 -20 -131 -28 -14 -51 -24 -53 -22 -1 2 -12 22 -24 45
-28 57 -81 107 -143 139 -56 29 -223 74 -272 74 -50 0 -76 11 -76 30 0 59 -33
65 -85 16 l-36 -35 -85 9 c-96 10 -104 13 -97 38 6 25 -14 72 -31 72 -8 0 -29
-12 -46 -27 l-32 -26 -70 34 -71 34 -183 -3 -182 -3 -12 36 c-14 41 -40 46
-63 12 -14 -21 -23 -24 -89 -24 -63 -1 -132 -11 -189 -29 -13 -3 -19 5 -26 33
-6 28 -14 38 -28 38 -21 0 -23 -10 -10 -57 6 -25 4 -28 -16 -28 -13 0 -58 7
-99 16 -85 18 -117 15 -265 -21 -76 -19 -134 -26 -226 -28 -111 -2 -129 -5
-174 -28 -44 -22 -105 -85 -117 -120 -9 -27 -108 53 -108 87 0 85 379 204 740
233 153 12 500 12 685 1z m-28 -156 c2 -22 -1 -52 -7 -69 -11 -29 -12 -29 -26
-11 -17 23 -18 89 -3 118 14 27 29 11 36 -38z m-87 -28 c0 -75 65 -143 99
-103 6 8 17 37 23 64 l12 50 127 13 c138 14 181 9 272 -32 41 -19 47 -25 41
-43 -4 -11 -9 -43 -11 -70 -4 -40 0 -56 15 -75 l20 -25 36 19 c38 20 76 71 76
100 0 16 8 17 68 11 114 -10 111 -8 114 -67 2 -41 7 -54 20 -56 26 -5 73 32
92 72 14 30 21 35 44 31 15 -2 61 -10 102 -16 89 -13 181 -43 230 -74 52 -33
120 -113 120 -141 0 -30 -265 -77 -645 -115 -157 -15 -560 -16 -705 0 -223 23
-557 73 -690 102 -273 60 -620 170 -620 196 0 23 65 86 108 105 32 14 72 20
160 22 86 2 146 10 227 31 93 23 122 26 185 20 158 -14 200 -20 200 -30 0 -5
-3 -24 -6 -42 -13 -68 32 -127 161 -214 79 -53 231 -89 250 -58 15 23 -8 56
-63 91 -92 58 -172 128 -172 150 0 33 -63 88 -101 88 -18 0 -29 3 -26 6 13 13
114 32 175 33 l62 1 0 -44z m676 -69 c-8 -45 -51 -96 -66 -80 -18 17 -2 70 33
110 26 30 33 33 35 19 2 -10 1 -32 -2 -49z m-831 -6 c0 -7 -17 -23 -38 -35
-32 -18 -39 -19 -47 -6 -15 23 -12 57 6 75 15 14 19 14 48 -3 17 -10 31 -24
31 -31z m1135 -18 c-9 -37 -44 -82 -56 -70 -15 14 34 107 56 107 5 0 4 -16 0
-37z m-2119 -133 c280 -116 652 -197 1214 -266 212 -26 650 -24 901 4 325 37
539 78 626 123 22 11 43 19 47 17 4 -2 -8 -59 -28 -127 l-36 -124 -45 -19
c-109 -47 -441 -115 -690 -143 -344 -38 -949 -2 -1360 81 -227 46 -469 120
-677 209 l-111 47 -6 47 c-5 45 -10 188 -7 223 1 15 8 14 50 -12 26 -17 81
-44 122 -60z m1077 28 c43 -35 87 -69 98 -76 17 -11 15 -12 -16 -6 -52 9 -114
38 -160 75 -41 33 -50 53 -27 62 22 10 26 8 105 -55z m-898 -406 c315 -104
570 -155 995 -198 242 -25 691 -25 875 0 182 24 409 69 534 106 57 16 107 30
110 30 10 0 -36 -114 -50 -126 -43 -34 -434 -113 -684 -139 -416 -42 -1049 8
-1506 120 -230 57 -565 179 -584 214 -5 10 -12 41 -16 69 l-6 51 103 -43 c57
-24 160 -62 229 -84z m-220 -93 c458 -189 1044 -292 1670 -292 203 0 308 4
400 17 165 22 373 61 489 92 52 13 96 22 99 19 9 -9 -98 -212 -167 -317 -160
-242 -336 -380 -596 -467 -308 -103 -588 -116 -897 -42 -308 74 -530 187 -716
365 -161 153 -245 291 -322 524 -39 120 -43 132 -37 132 1 0 36 -14 77 -31z"/>
<path d="M6053 10195 c-12 -33 5 -95 38 -136 33 -42 110 -86 129 -74 6 3 10
25 10 48 -1 89 -69 177 -136 177 -22 0 -37 -6 -41 -15z m95 -58 c28 -29 46
-87 29 -87 -23 0 -59 33 -73 66 -18 42 -18 44 4 44 10 0 28 -11 40 -23z"/>
<path d="M5696 10167 c-15 -15 -26 -37 -26 -52 0 -69 127 -117 214 -81 58 24
82 80 52 121 -10 14 -28 19 -77 20 -35 1 -81 5 -101 10 -32 6 -40 4 -62 -18z
m135 -32 c68 -2 83 -9 69 -34 -14 -27 -65 -44 -106 -38 -38 6 -74 32 -74 52 0
19 24 36 40 28 8 -3 40 -7 71 -8z"/>
<path d="M6808 10171 c-15 -12 -28 -35 -33 -58 -4 -21 -13 -50 -21 -65 -33
-64 1 -129 60 -114 34 8 93 78 105 124 12 43 5 96 -14 112 -26 22 -70 22 -97
1z m70 -76 c4 -48 -31 -108 -66 -113 -31 -5 -36 17 -12 63 11 21 20 49 20 60
0 28 9 37 35 33 16 -2 21 -12 23 -43z"/>
<path d="M6960 10040 c-25 -25 -25 -53 -1 -107 23 -49 61 -77 106 -77 75 0 85
53 25 123 -22 25 -47 54 -55 64 -20 23 -50 22 -75 -3z m70 -56 c0 -7 14 -23
30 -36 37 -27 39 -48 5 -48 -47 0 -97 84 -68 113 9 9 33 -12 33 -29z"/>
<path d="M7740 10049 c-14 -6 -39 -8 -56 -4 -63 11 -111 -66 -68 -109 42 -42
125 -52 181 -23 32 17 63 62 63 92 0 43 -63 66 -120 44z m74 -44 c3 -8 -4 -25
-15 -39 -17 -22 -29 -26 -69 -26 -55 0 -97 26 -87 53 5 13 19 17 59 17 29 0
59 4 67 9 17 11 38 4 45 -14z"/>
<path d="M7316 9981 c-21 -22 -49 -42 -61 -45 -12 -3 -28 -19 -35 -36 -10 -25
-10 -34 4 -55 36 -55 170 -19 211 58 l20 37 -20 38 c-29 55 -67 56 -119 3z
m82 -38 c3 -25 -3 -36 -30 -56 -36 -27 -72 -39 -94 -30 -25 9 -15 32 24 57 20
13 46 33 56 45 25 28 40 22 44 -16z"/>
<path d="M4358 10323 c-8 -10 -45 -80 -81 -155 l-66 -138 -59 0 c-121 0 -229
-47 -344 -149 -73 -66 -107 -114 -211 -294 -133 -230 -182 -291 -457 -572
-277 -282 -325 -347 -376 -496 -143 -423 116 -855 579 -961 73 -17 126 -22
257 -22 155 -1 170 1 249 27 335 112 531 353 597 730 18 106 20 310 5 442 -15
126 -13 279 4 350 7 33 30 107 49 165 45 135 60 226 52 309 -13 139 -67 251
-173 360 l-72 74 42 68 c23 38 73 103 110 144 42 46 67 81 63 90 -15 39 -140
60 -168 28z m86 -29 c25 -10 20 -23 -36 -83 -29 -32 -71 -90 -93 -129 -22 -39
-46 -72 -52 -72 -7 0 -13 3 -13 6 0 3 32 68 71 145 71 141 80 150 123 133z
m-186 -334 c102 -45 172 -177 172 -327 0 -83 -21 -148 -107 -337 -31 -66 -67
-163 -81 -216 -24 -90 -25 -115 -32 -440 -7 -303 -10 -355 -29 -422 -82 -307
-312 -566 -553 -623 -221 -52 -494 45 -675 239 -228 244 -242 619 -32 886 23
30 143 154 265 275 268 266 313 323 475 615 51 92 82 133 154 206 156 158 302
205 443 144z m242 -313 c14 -71 14 -188 0 -253 -6 -27 -28 -101 -49 -164 -60
-178 -66 -240 -46 -487 20 -244 15 -381 -20 -517 -60 -239 -165 -396 -341
-515 -73 -49 -192 -103 -254 -116 -32 -6 -29 -3 30 35 212 139 382 406 421
661 6 42 11 185 10 331 -1 352 19 457 131 697 74 158 89 211 90 320 0 100 8
102 28 8z"/>
<path d="M3595 8916 c-265 -84 -492 -452 -472 -765 7 -113 29 -173 86 -232 70
-72 149 -87 264 -48 244 82 457 421 457 728 0 239 -146 377 -335 317z m174
-57 c169 -95 151 -439 -37 -716 -77 -114 -209 -218 -301 -238 -111 -24 -183
11 -233 112 -31 63 -33 74 -32 168 1 189 81 384 216 531 52 56 156 132 206
150 57 20 138 17 181 -7z"/>
<path d="M2700 10041 c-82 -25 -144 -87 -196 -193 -87 -183 -84 -415 8 -544
57 -80 141 -104 224 -64 149 73 254 348 214 560 -24 124 -89 218 -167 239 -43
12 -48 12 -83 2z m48 -98 c-3 -41 -18 -87 -51 -160 -65 -142 -72 -182 -58
-321 12 -105 8 -192 -7 -192 -20 0 -72 43 -92 74 -53 87 -66 245 -29 376 41
151 143 278 223 280 16 0 18 -6 14 -57z m83 16 c12 -12 33 -46 47 -78 24 -51
27 -68 27 -176 0 -97 -4 -134 -22 -191 -26 -83 -83 -172 -132 -209 -52 -38
-67 -34 -63 18 2 23 -1 84 -6 136 -11 128 -2 178 53 301 32 71 49 124 53 163
2 31 9 57 13 57 5 0 18 -9 30 -21z"/>
<path d="M1580 9922 c-59 -33 -75 -64 -75 -145 0 -62 5 -82 35 -142 45 -89
150 -201 228 -243 112 -60 244 -79 312 -44 55 27 83 77 78 140 -11 137 -166
332 -322 407 -100 48 -199 58 -256 27z m236 -70 c114 -58 208 -155 264 -273
28 -60 41 -139 21 -139 -4 0 -34 34 -65 75 -91 118 -155 165 -246 180 -56 9
-88 25 -121 62 -34 36 -82 113 -75 120 12 12 74 18 117 12 26 -4 73 -21 105
-37z m-222 -77 c44 -67 91 -99 176 -121 74 -19 102 -32 147 -71 33 -28 154
-185 148 -191 -2 -2 -22 -8 -45 -13 -52 -12 -152 10 -224 49 -125 67 -246 238
-246 348 0 30 2 54 4 54 2 0 20 -25 40 -55z"/>
<path d="M1824 9190 c-50 -19 -151 -174 -210 -324 l-32 -81 -57 -2 c-32 -1
-74 -7 -94 -14 -107 -34 -224 -150 -300 -297 -56 -110 -69 -158 -49 -185 12
-15 10 -35 -8 -126 -12 -59 -27 -177 -33 -262 -37 -493 126 -1085 366 -1325
51 -50 134 -94 181 -94 89 0 100 41 67 255 -39 251 -55 439 -55 636 0 199 14
317 61 521 16 69 29 129 29 132 0 3 6 6 14 6 83 0 194 321 165 478 -6 31 -21
77 -34 102 -25 50 -91 115 -131 130 -13 5 -24 16 -24 24 0 24 94 178 159 259
75 95 84 112 72 136 -13 24 -60 41 -87 31z m30 -48 c4 -7 -160 -264 -208 -327
-20 -25 45 123 81 185 35 62 102 150 113 150 5 0 11 -4 14 -8z m-197 -431 c62
-31 105 -73 139 -133 26 -48 29 -61 28 -143 0 -54 -8 -114 -18 -150 -19 -66
-76 -195 -85 -195 -3 0 -24 28 -46 62 -54 84 -60 86 -128 55 l-55 -25 -22 54
c-26 62 -44 68 -110 34 -55 -28 -63 -26 -83 24 -10 24 -26 51 -36 60 -17 15
-22 15 -66 -4 -26 -11 -50 -18 -53 -15 -8 8 26 88 66 155 75 123 157 199 253
234 59 22 160 16 216 -13z m-417 -452 c30 -63 45 -72 90 -52 85 36 78 38 105
-22 13 -30 30 -55 38 -55 8 0 40 11 71 25 31 14 59 25 61 25 3 0 17 -23 31
-52 l26 -52 -17 -56 c-106 -334 -121 -846 -39 -1299 19 -103 20 -169 2 -187
-11 -12 -23 -9 -73 15 -107 50 -183 140 -265 314 -191 406 -242 955 -129 1390
9 35 31 54 65 56 6 1 21 -22 34 -50z"/>
<path d="M8990 9133 c-191 -32 -388 -198 -457 -387 -10 -28 -16 -88 -18 -186
-2 -132 -5 -153 -33 -232 -45 -128 -57 -218 -42 -309 32 -192 106 -297 264
-374 125 -62 262 -78 416 -51 93 17 165 49 265 116 73 49 113 69 278 135 119
48 198 140 232 270 41 157 -8 415 -100 523 -15 18 -69 66 -119 107 -85 69
-112 98 -214 230 -56 72 -132 121 -226 145 -73 19 -179 24 -246 13z m195 -44
c117 -21 193 -75 295 -208 65 -85 111 -130 187 -185 134 -95 195 -230 197
-436 1 -117 -18 -185 -74 -263 -44 -61 -94 -96 -181 -126 -85 -29 -155 -65
-258 -130 -134 -86 -225 -115 -366 -115 -133 -1 -222 23 -313 84 -97 65 -149
143 -178 267 -24 101 -15 195 31 333 37 111 38 121 40 260 1 116 5 154 20 190
62 150 231 289 398 325 78 17 128 18 202 4z"/>
<path d="M9000 8970 c-207 -32 -330 -159 -330 -339 0 -43 7 -67 29 -106 16
-28 36 -57 45 -64 24 -20 20 -29 -23 -50 -59 -31 -116 -101 -135 -169 -64
-228 81 -439 332 -488 104 -20 240 -1 336 48 60 30 139 111 166 168 27 58 52
70 98 46 42 -22 110 -20 148 3 20 12 43 41 60 78 26 52 29 68 29 158 -1 168
-50 308 -127 358 -52 34 -114 36 -193 6 -31 -12 -58 -19 -61 -16 -3 2 0 24 5
48 14 61 13 97 -4 155 -19 64 -81 128 -144 148 -61 19 -163 26 -231 16z m234
-66 c22 -11 54 -37 70 -58 31 -38 31 -40 31 -154 0 -65 4 -123 8 -129 12 -19
51 -16 91 8 19 11 59 23 88 26 48 5 57 2 86 -22 64 -54 103 -177 103 -328 0
-65 -4 -89 -25 -131 -39 -80 -72 -90 -174 -52 -59 22 -90 5 -128 -70 -77 -153
-288 -238 -473 -190 -131 34 -206 90 -262 196 -20 38 -24 59 -24 140 0 119 22
166 105 222 78 52 84 81 29 153 -51 67 -61 125 -35 203 46 139 182 214 376
209 74 -1 104 -7 134 -23z"/>
<path d="M11006 8844 c-211 -39 -497 -178 -521 -253 -3 -10 20 -71 58 -152
117 -246 265 -626 355 -909 21 -63 42 -123 48 -134 27 -45 197 -59 349 -27
150 31 305 121 305 178 0 11 -9 69 -19 129 -22 122 -44 270 -63 419 -9 66 -12
200 -11 395 2 162 0 303 -3 313 -3 9 -20 25 -37 34 -44 24 -346 29 -461 7z
m437 -43 c27 -22 20 -48 -25 -84 -122 -97 -286 -157 -516 -187 -157 -22 -341
-2 -367 39 -12 20 57 74 156 123 190 93 356 128 585 125 111 -1 155 -6 167
-16z m19 -238 c-2 -71 -5 -133 -7 -139 -2 -8 -19 -9 -57 -2 -63 10 -201 3
-316 -18 -104 -19 -289 -83 -354 -123 l-49 -31 -8 23 c-5 13 -30 67 -55 122
-25 54 -45 100 -43 101 2 2 19 -1 38 -6 18 -6 93 -10 166 -10 139 0 289 22
396 59 72 25 192 85 241 122 22 16 42 29 45 29 4 0 5 -57 3 -127z m-40 -194
c20 -11 20 -11 -1 -33 -26 -28 -146 -88 -222 -111 -95 -29 -211 -45 -320 -45
-101 0 -169 12 -169 30 0 42 256 134 455 164 97 14 225 12 257 -5z m43 -176
c7 -101 38 -352 54 -436 10 -55 6 -62 -64 -102 -121 -71 -287 -110 -422 -99
-45 3 -89 11 -97 18 -7 6 -26 49 -41 96 -22 68 -134 385 -160 451 -5 13 13 15
142 15 88 -1 176 5 218 13 98 19 225 65 293 106 31 19 60 34 63 35 4 0 10 -44
14 -97z m84 -631 c1 -29 -5 -36 -55 -68 -105 -67 -173 -87 -322 -92 -171 -6
-199 5 -216 83 l-6 30 127 0 c156 0 235 18 366 84 l92 46 6 -25 c4 -14 7 -40
8 -58z"/>
<path d="M7785 8169 c-45 -54 -86 -146 -109 -243 -11 -48 -13 -50 -56 -61
-138 -35 -261 -180 -306 -359 -13 -53 -15 -76 -6 -100 5 -17 10 -69 10 -116
-1 -212 112 -478 289 -682 128 -148 370 -325 552 -404 147 -64 256 -86 421
-88 115 -1 157 3 205 17 158 49 290 155 270 217 -9 28 -74 48 -235 70 -80 12
-170 28 -199 36 -173 49 -376 206 -494 382 -97 145 -176 342 -192 483 -6 52
-5 57 15 62 22 6 22 9 18 119 -7 179 -58 277 -173 333 l-54 27 44 87 c24 48
59 108 79 134 20 26 36 54 36 62 0 15 -55 55 -77 55 -6 0 -23 -14 -38 -31z
m39 -73 c-14 -22 -43 -76 -64 -120 -22 -43 -42 -82 -46 -85 -13 -12 9 66 38
136 35 85 63 124 83 116 12 -4 10 -13 -11 -47z m-53 -297 c94 -47 150 -147
157 -275 3 -46 1 -84 -4 -84 -5 0 -27 12 -49 25 -22 14 -46 25 -54 25 -8 0
-33 -16 -57 -35 -23 -19 -45 -35 -48 -35 -2 0 -19 20 -37 45 -18 25 -40 45
-51 45 -10 0 -35 -16 -57 -35 -21 -19 -43 -35 -49 -35 -6 0 -22 15 -36 32
l-25 33 -56 -28 c-63 -31 -65 -28 -36 54 30 88 60 139 114 197 96 100 186 123
288 71z m-112 -389 c40 -50 65 -51 118 -5 47 40 50 41 80 17 18 -14 25 -37 38
-126 36 -243 167 -491 355 -669 170 -162 302 -220 594 -257 83 -11 154 -24
159 -29 27 -27 -84 -114 -194 -152 -89 -31 -290 -38 -409 -14 -287 57 -634
287 -824 544 -139 189 -225 433 -213 604 6 83 15 100 65 113 18 5 29 -1 52
-27 l28 -34 36 19 c19 10 43 27 52 37 23 26 26 25 63 -21z"/>
<path d="M6198 8020 c-263 -25 -465 -66 -675 -136 -236 -78 -400 -165 -517
-274 -66 -61 -79 -94 -65 -162 16 -72 79 -214 136 -307 142 -232 415 -496 614
-597 62 -31 77 -34 153 -34 166 0 439 64 554 130 59 35 92 75 150 187 126 245
211 603 199 839 -12 230 -47 305 -158 339 -64 20 -263 27 -391 15z m343 -51
c82 -13 136 -51 124 -88 -10 -31 -67 -93 -125 -136 l-47 -35 -57 20 c-143 49
-354 51 -571 5 -270 -57 -446 -138 -573 -265 l-52 -53 -87 12 c-88 13 -156 39
-166 65 -9 23 44 88 119 145 177 134 490 246 869 310 225 39 406 45 566 20z
m159 -246 c22 -148 -14 -401 -86 -620 -39 -121 -139 -334 -178 -379 -84 -100
-566 -212 -690 -160 -56 23 -205 129 -298 210 -98 85 -215 215 -291 321 -46
66 -137 241 -152 294 -7 21 -5 23 16 18 172 -47 479 -55 694 -18 166 28 276
54 395 92 196 65 437 196 526 289 22 21 42 39 45 40 4 0 13 -39 19 -87z m-433
-3 c91 -10 163 -29 163 -41 0 -13 -174 -98 -277 -135 -211 -76 -455 -123 -685
-131 -112 -4 -158 -3 -158 5 0 16 108 104 171 140 136 76 387 146 580 161 57
5 109 9 114 10 6 0 47 -3 92 -9z"/>
<path d="M12268 7974 c-14 -13 -10 -19 83 -145 50 -68 101 -144 114 -169 41
-81 102 -270 88 -270 -3 0 -30 23 -61 50 -31 28 -97 71 -147 97 -108 56 -184
125 -257 234 -29 44 -57 79 -63 79 -28 0 -35 -27 -35 -129 0 -180 31 -268 153
-448 113 -165 122 -190 121 -348 -1 -144 -16 -232 -106 -610 -131 -555 -132
-567 -102 -712 26 -129 51 -182 113 -243 51 -50 56 -58 47 -81 -19 -55 25
-120 93 -139 65 -17 179 -30 213 -23 73 13 118 61 118 125 0 19 13 29 76 57
100 45 184 122 223 205 40 83 52 122 106 329 55 214 73 268 135 410 61 137
102 206 165 275 87 96 177 116 302 66 80 -32 94 -25 69 39 -23 62 -127 200
-178 238 -24 17 -62 40 -85 50 l-41 19 14 53 c8 28 17 95 21 147 4 79 1 116
-21 223 -32 154 -29 202 21 285 42 70 146 178 231 239 65 47 77 75 35 81 -39
6 -224 -47 -307 -87 -85 -41 -171 -109 -195 -155 -18 -32 -23 -32 -36 -3 -16
35 -80 61 -159 64 -70 2 -70 2 -108 -38 -21 -22 -50 -57 -63 -77 -13 -21 -35
-50 -48 -65 l-24 -29 -30 64 c-51 110 -192 242 -331 312 -54 27 -131 44 -144
30z m243 -145 c109 -81 182 -168 213 -257 14 -39 13 -43 -13 -96 -16 -30 -37
-66 -49 -80 -11 -14 -23 -42 -26 -61 -9 -47 -26 -45 -26 4 0 64 -46 226 -89
311 -44 88 -127 214 -166 250 -72 67 33 20 156 -71z m1007 -36 c-125 -130
-153 -186 -152 -303 0 -47 8 -113 18 -148 27 -101 31 -178 12 -273 -24 -118
-37 -140 -103 -177 -30 -18 -57 -31 -58 -30 -9 9 -7 49 5 86 12 38 11 47 -4
78 -12 27 -14 44 -7 72 10 41 8 255 -4 429 l-7 111 31 46 c60 87 131 137 260
182 112 40 113 33 9 -73z m-1443 -84 c42 -72 131 -149 237 -205 203 -108 241
-164 297 -429 28 -136 57 -322 76 -490 9 -77 20 -169 25 -205 24 -175 33 -400
21 -535 -13 -142 -47 -290 -83 -363 -51 -101 -155 -182 -235 -182 -89 0 -206
68 -257 149 -48 76 -61 136 -60 281 0 134 1 138 91 525 105 449 109 467 123
598 18 175 -11 283 -119 432 -79 109 -106 158 -130 237 -22 72 -39 238 -25
238 5 0 23 -23 39 -51z m905 17 c0 -8 -5 -18 -10 -21 -17 -11 -40 3 -34 20 8
19 44 20 44 1z m99 0 c14 -16 4 -46 -14 -46 -37 0 -60 32 -38 53 11 12 40 8
52 -7z m68 -32 c9 -23 -11 -38 -26 -20 -13 16 -7 36 10 36 5 0 12 -7 16 -16z
m-199 -48 c5 -25 -12 -39 -37 -31 -20 6 -28 34 -14 49 13 13 48 1 51 -18z m96
4 c37 -14 37 -60 0 -60 -29 0 -64 16 -64 30 0 8 28 40 35 40 2 0 15 -4 29 -10z
m137 -47 c12 -32 -12 -54 -48 -44 -28 8 -39 30 -29 57 9 24 67 14 77 -13z
m-281 -31 c21 -17 22 -18 3 -41 -19 -23 -20 -23 -51 -7 -36 18 -41 40 -14 55
25 15 37 13 62 -7z m152 -28 c14 -9 9 -61 -7 -74 -12 -10 -24 -11 -56 -1 -46
14 -54 27 -39 66 10 26 13 27 52 21 22 -4 45 -9 50 -12z m119 -34 c10 -6 19
-20 19 -30 0 -17 -7 -20 -45 -20 -47 0 -63 14 -51 45 6 17 48 20 77 5z m-334
-17 c35 -15 43 -23 43 -44 0 -44 -21 -52 -76 -31 -54 20 -66 42 -38 73 21 23
19 23 71 2z m158 -56 c39 -10 51 -18 53 -36 7 -48 -48 -67 -108 -36 -32 16
-37 34 -20 66 13 22 11 22 75 6z m193 -29 c19 -19 14 -56 -8 -68 -47 -25 -120
28 -90 65 15 18 81 20 98 3z m-372 -39 c57 -28 33 -94 -29 -82 -98 19 -129 49
-91 88 20 19 72 17 120 -6z m172 -49 c47 -11 52 -14 52 -40 0 -44 -20 -54 -81
-41 -29 7 -59 16 -66 23 -28 23 -7 83 27 74 8 -2 39 -10 68 -16z m196 -33 c12
-9 17 -23 14 -47 -3 -31 -6 -35 -36 -38 -61 -6 -106 50 -70 86 16 16 70 15 92
-1z m-402 -43 c33 -17 37 -53 9 -78 -22 -20 -83 -13 -130 15 -35 21 -39 43
-14 72 14 15 25 17 63 12 24 -4 57 -13 72 -21z m166 -35 c26 -7 53 -16 60 -22
19 -15 14 -55 -9 -68 -30 -16 -104 -2 -136 25 -24 21 -26 26 -15 50 13 29 30
32 100 15z m241 -64 c12 -12 12 -19 2 -41 -11 -25 -15 -26 -58 -20 -25 3 -52
11 -59 17 -17 14 -18 41 -1 58 15 15 96 6 116 -14z m-449 -28 c27 -13 35 -36
26 -72 -8 -29 -26 -36 -69 -24 -30 8 -36 15 -41 47 -4 20 -10 45 -13 56 -5 17
-1 18 33 12 22 -4 50 -13 64 -19z m167 -31 c35 -7 70 -19 78 -26 23 -19 18
-57 -9 -76 -21 -13 -33 -14 -79 -4 -84 17 -112 58 -74 108 11 14 7 15 84 -2z
m286 -68 c9 -11 17 -26 17 -33 0 -7 -8 -22 -17 -34 -17 -21 -21 -21 -73 -10
-30 6 -63 16 -72 21 -24 12 -23 53 1 77 16 16 26 18 72 9 34 -5 61 -17 72 -30z
m-449 -58 c5 -5 6 -20 2 -34 -5 -19 -13 -26 -30 -26 -26 0 -36 17 -36 57 0 22
3 24 28 18 15 -3 31 -10 36 -15z m138 -14 c37 -8 71 -17 77 -21 18 -10 12 -54
-9 -75 -24 -24 -68 -20 -130 9 -40 18 -52 58 -25 85 9 9 17 16 18 16 1 0 32
-6 69 -14z m281 -55 c21 -8 27 -17 27 -41 0 -60 -83 -75 -159 -29 -35 21 -38
35 -15 68 15 21 22 23 68 18 28 -3 63 -10 79 -16z m283 -26 c46 -19 165 -138
193 -192 24 -48 22 -49 -39 -28 -23 8 -58 15 -76 15 -44 0 -126 -31 -170 -65
-83 -64 -198 -258 -259 -439 -15 -44 -60 -195 -100 -336 -40 -141 -83 -276
-94 -299 -47 -91 -135 -162 -248 -200 -92 -31 -105 -28 -61 15 21 19 49 50 63
68 66 87 113 280 124 511 l7 150 88 164 c115 215 175 316 255 431 83 121 145
183 202 203 57 20 72 20 115 2z m-726 -14 c13 -25 13 -88 0 -96 -12 -8 -16 5
-24 68 -6 49 5 62 24 28z m170 -51 c38 0 56 -24 44 -57 -14 -41 -36 -49 -91
-35 -48 12 -93 50 -93 77 0 7 7 20 15 29 14 13 20 13 56 0 23 -7 54 -14 69
-14z m172 -31 c85 -18 82 -15 52 -56 -42 -57 -50 -62 -91 -53 -40 9 -53 23
-53 58 0 27 17 62 30 62 4 0 32 -5 62 -11z m-210 -100 c35 -9 68 -32 68 -47 0
-4 -9 -22 -20 -39 -22 -38 -57 -43 -115 -19 -52 22 -72 77 -39 110 16 16 22
16 106 -5z m186 -53 c4 -5 -23 -51 -46 -78 -20 -24 -52 -6 -52 29 0 40 28 66
64 59 16 -4 31 -8 34 -10z m-227 -100 c51 -9 64 -27 47 -63 -11 -24 -20 -28
-60 -31 -46 -3 -47 -2 -52 30 -13 77 -11 91 12 80 9 -5 33 -12 53 -16z m149
-32 c0 -17 -44 -74 -54 -71 -13 4 -9 46 6 65 11 12 48 17 48 6z m-74 -117 c8
-8 -24 -83 -42 -98 -7 -6 -27 -7 -47 -4 -33 7 -35 9 -39 53 -3 26 -3 51 0 56
5 9 118 3 128 -7z m-76 -156 c-1 -3 -7 -17 -14 -30 l-13 -24 -7 27 c-4 15 -4
31 -1 36 6 10 35 2 35 -9z m-407 -961 c42 -7 92 -10 129 -6 l60 7 -6 -28 c-15
-64 -83 -79 -216 -47 -84 19 -110 37 -110 73 0 38 7 42 44 27 17 -7 62 -19 99
-26z"/>
<path d="M2454 7412 c-68 -24 -95 -42 -137 -94 -49 -62 -82 -123 -109 -203
-20 -60 -23 -90 -23 -210 1 -129 3 -146 29 -215 37 -98 81 -164 144 -221 78
-70 113 -84 212 -84 103 0 150 20 195 84 28 40 30 49 30 129 0 99 -10 128 -72
220 -56 83 -58 130 -8 268 53 145 45 217 -28 281 -35 31 -119 63 -161 63 -12
-1 -44 -9 -72 -18z m166 -52 c91 -46 106 -124 50 -250 -30 -66 -34 -86 -34
-161 l-1 -86 47 -69 c72 -107 89 -209 46 -286 -78 -139 -289 -102 -401 71 -95
145 -121 267 -93 432 46 268 225 431 386 349z"/>
<path d="M3856 7115 c-25 -27 -46 -87 -46 -131 0 -16 9 -67 20 -114 11 -47 20
-104 20 -127 0 -42 -1 -42 -26 -33 -14 6 -51 10 -83 10 -47 0 -67 -6 -112 -33
-30 -18 -94 -52 -142 -76 -107 -53 -196 -136 -245 -228 -73 -137 -102 -359
-67 -498 85 -332 441 -522 910 -486 311 25 484 101 628 279 117 143 157 259
157 446 -1 266 -109 464 -310 565 -45 22 -90 41 -100 41 -11 0 -20 9 -22 22
-2 17 -19 27 -88 50 -134 45 -232 37 -329 -28 -23 -15 -43 -25 -44 -23 -10 13
-27 118 -27 162 1 48 6 69 41 154 11 28 11 34 -6 52 -27 31 -99 29 -129 -4z
m81 -26 c8 -8 6 -22 -8 -53 -29 -66 -33 -115 -15 -203 9 -44 15 -99 14 -123
-2 -25 2 -44 8 -47 7 -2 34 15 60 38 94 81 174 101 295 74 43 -10 76 -22 73
-27 -3 -4 -51 -8 -108 -8 -111 0 -181 -17 -212 -51 -26 -28 -5 -44 78 -57 36
-6 82 -18 101 -27 38 -18 121 -85 114 -92 -3 -2 -31 12 -63 30 -76 44 -121 58
-190 60 -48 1 -59 -2 -75 -22 -34 -42 -17 -118 49 -220 40 -62 59 -116 49
-143 -3 -9 -7 -7 -13 7 -4 11 -29 54 -54 95 -47 75 -61 108 -80 188 -13 50
-33 55 -79 17 -59 -50 -72 -85 -76 -198 -3 -98 -16 -157 -46 -206 -8 -11 -16
-21 -19 -21 -3 0 -4 31 -2 68 3 45 -1 84 -12 115 -18 53 -13 73 45 210 37 87
34 97 -31 97 -55 0 -102 -17 -169 -60 -33 -22 -61 -36 -61 -31 0 4 28 38 61
75 96 104 153 124 252 89 42 -15 49 -15 57 -3 16 25 11 135 -11 227 -21 93
-19 137 9 186 17 28 40 35 59 16z m530 -410 c223 -74 363 -289 363 -557 -1
-175 -57 -316 -180 -444 -123 -131 -227 -183 -438 -218 -287 -50 -560 -8 -756
114 -171 107 -248 253 -248 471 0 170 55 317 157 420 53 54 135 114 135 99 0
-3 -16 -25 -35 -48 -19 -24 -35 -53 -35 -66 0 -20 4 -22 35 -17 20 3 75 29
123 56 79 46 142 65 142 43 0 -5 -13 -48 -30 -95 -34 -100 -36 -120 -14 -173
12 -29 15 -63 13 -138 -5 -120 4 -128 66 -63 56 58 76 122 81 249 4 102 15
138 53 172 20 18 20 18 26 -10 15 -66 28 -95 79 -175 29 -46 61 -105 70 -131
30 -77 56 -70 70 18 9 61 -9 139 -45 191 -40 58 -72 139 -64 164 5 15 16 19
54 19 62 0 110 -17 209 -74 125 -73 159 -55 82 42 -61 78 -130 124 -205 137
-94 17 -51 28 129 33 80 2 113 -2 163 -19z"/>
<path d="M10482 7120 c-24 -11 -66 -40 -95 -65 -46 -40 -53 -43 -67 -30 -21
19 -53 19 -91 0 -27 -14 -32 -14 -51 0 -26 17 -71 20 -99 4 -15 -8 -25 -6 -46
10 -34 28 -67 27 -86 -3 -28 -42 -48 -132 -50 -225 -1 -50 -4 -91 -7 -91 -3 0
-15 7 -27 15 -39 28 -141 75 -161 75 -14 0 -27 -16 -45 -57 -55 -123 -230
-561 -337 -843 -78 -205 -176 -449 -292 -730 -369 -889 -458 -1112 -458 -1144
0 -73 101 -161 310 -270 188 -97 455 -199 610 -232 74 -16 94 -25 155 -71 122
-93 282 -143 355 -113 17 7 39 24 49 39 10 14 67 134 126 266 112 250 285 602
410 835 40 74 134 255 209 402 75 147 180 348 233 445 121 225 343 660 343
676 1 7 24 26 53 42 28 17 58 42 67 58 15 27 14 28 -24 60 -34 29 -38 36 -32
64 5 23 3 35 -9 45 -43 35 -55 49 -55 67 0 28 -26 44 -60 38 -27 -6 -31 -3
-44 27 -15 36 -49 61 -71 53 -8 -4 -15 7 -19 32 -3 21 -17 47 -31 61 -14 13
-25 29 -25 35 0 6 -16 26 -35 45 -19 19 -35 38 -35 43 0 5 -25 34 -56 64 -45
45 -66 58 -107 67 -50 11 -51 12 -62 61 -18 81 -61 145 -96 145 -10 0 -21 10
-25 23 -9 29 -22 37 -66 37 -29 0 -38 5 -44 23 -13 42 -45 47 -112 17z m68
-39 c0 -4 10 -17 21 -30 17 -18 28 -21 53 -17 27 5 33 2 48 -24 12 -20 25 -30
41 -30 32 0 55 -36 71 -111 14 -70 29 -88 82 -96 29 -5 52 -19 92 -59 28 -28
52 -59 52 -68 0 -9 13 -25 30 -34 16 -9 34 -29 39 -44 5 -14 19 -36 31 -48 14
-14 20 -31 18 -48 -3 -24 -13 -30 -111 -66 l-109 -38 -15 23 c-31 46 -104 107
-161 135 -52 26 -66 28 -172 29 -76 0 -123 -4 -137 -13 -35 -20 -30 -2 42 134
72 137 79 171 40 209 -19 20 -34 25 -73 25 -107 0 -298 -130 -364 -247 -16
-29 -32 -53 -35 -53 -4 0 -25 15 -49 33 l-43 32 -1 88 c0 100 25 226 46 234 8
3 23 -2 33 -11 22 -20 44 -20 83 0 31 16 32 16 53 -10 26 -32 39 -33 81 -1 39
30 39 30 71 5 14 -11 30 -20 35 -20 5 0 30 20 56 44 64 59 120 96 138 89 8 -3
14 -8 14 -12z m-62 -247 c2 -11 -27 -78 -64 -149 -38 -71 -87 -173 -109 -227
l-42 -98 -52 59 c-28 33 -51 68 -51 78 0 27 46 120 80 164 17 21 53 54 81 75
32 23 47 40 41 46 -32 32 -181 -123 -222 -229 l-16 -43 -32 33 -31 32 22 44
c62 125 235 245 342 239 42 -3 50 -6 53 -24z m-720 -98 c154 -78 418 -327 537
-506 49 -74 125 -210 125 -225 0 -6 -30 -21 -67 -34 -161 -55 -258 -111 -483
-280 -291 -217 -471 -462 -581 -791 -69 -207 -83 -290 -83 -500 l0 -185 37
-110 c46 -135 136 -319 216 -442 33 -51 56 -93 52 -93 -18 0 -191 53 -286 87
-111 40 -383 175 -487 242 -84 53 -128 102 -128 141 0 16 27 94 59 172 306
740 373 906 725 1788 289 726 303 760 311 760 3 0 27 -11 53 -24z m935 -253
c75 -36 135 -93 169 -161 18 -36 24 -68 26 -139 l4 -93 -26 0 c-14 0 -29 -1
-33 -2 -4 -2 -6 25 -4 59 7 186 -189 336 -395 303 -31 -5 -64 -12 -75 -15 -16
-5 -18 -3 -11 17 6 17 26 29 73 46 90 32 182 26 272 -15z m-92 -80 c113 -36
210 -175 195 -277 l-7 -44 -67 -11 c-37 -7 -107 -23 -156 -37 -48 -14 -90 -24
-91 -22 -1 2 -16 30 -33 63 -17 33 -56 100 -87 149 -45 72 -55 95 -50 117 4
15 12 32 19 38 49 41 188 53 277 24z m615 5 c4 -6 7 -36 6 -67 -2 -66 -35
-138 -93 -205 l-41 -46 -76 0 -77 0 0 87 c0 49 -4 102 -8 119 l-8 31 123 45
c131 48 163 55 174 36z m104 -89 c0 -11 14 -33 30 -47 17 -15 30 -36 30 -50 0
-29 17 -61 43 -83 21 -16 20 -17 -34 -48 -29 -17 -63 -31 -74 -31 -34 1 -156
18 -161 23 -3 3 13 29 36 58 23 31 49 82 60 119 12 35 26 68 33 72 22 14 37 8
37 -13z m-47 -295 c20 -4 37 -10 37 -15 0 -7 -75 -152 -410 -794 -37 -71 -132
-256 -211 -410 -78 -154 -163 -316 -187 -360 -58 -105 -216 -428 -337 -690
-158 -342 -162 -350 -189 -365 -61 -32 -256 51 -361 154 -101 99 -222 301
-304 507 -57 145 -65 191 -65 359 0 135 3 171 28 275 74 315 214 585 400 771
162 162 401 341 551 414 115 56 347 128 505 156 74 13 453 12 543 -2z"/>
<path d="M10280 6641 c0 -15 41 -41 66 -41 11 0 1 29 -14 43 -25 23 -52 22
-52 -2z"/>
<path d="M10222 6537 c-16 -19 1 -38 35 -39 58 -2 71 24 22 41 -40 14 -44 14
-57 -2z"/>
<path d="M9750 6478 c0 -15 252 -434 275 -457 25 -26 29 -2 8 42 -38 74 -258
420 -271 425 -7 2 -12 -2 -12 -10z"/>
<path d="M9720 6379 c0 -11 39 -78 184 -323 41 -68 66 -92 66 -63 0 16 -192
350 -218 380 -17 20 -32 22 -32 6z"/>
<path d="M9500 5965 c0 -25 168 -275 185 -275 18 0 16 5 -48 110 -89 147 -137
205 -137 165z"/>
<path d="M9435 5910 c-3 -5 37 -75 89 -155 86 -131 116 -166 116 -134 0 12
-186 299 -194 299 -3 0 -8 -4 -11 -10z"/>
<path d="M9175 5279 c-4 -5 17 -46 45 -89 57 -86 75 -106 84 -92 5 9 -108 192
-118 192 -3 0 -8 -5 -11 -11z"/>
<path d="M9135 5221 c-6 -11 83 -148 113 -175 37 -32 26 1 -30 90 -51 81 -72
102 -83 85z"/>
<path d="M8896 4582 c-11 -18 192 -340 222 -350 26 -8 8 28 -94 185 -108 165
-119 180 -128 165z"/>
<path d="M8840 4507 c0 -14 189 -313 249 -394 30 -41 51 -54 51 -33 0 8 -28
53 -213 338 -63 96 -87 120 -87 89z"/>
<path d="M10395 6340 c-12 -19 4 -76 26 -96 17 -16 22 -16 30 -4 5 8 8 35 7
60 -3 40 -6 45 -30 48 -14 2 -29 -2 -33 -8z"/>
<path d="M10561 6291 c-14 -25 -14 -78 -1 -86 17 -10 72 52 68 77 -4 31 -52
38 -67 9z"/>
<path d="M10663 6196 c-35 -30 -22 -52 25 -41 36 8 57 29 48 50 -8 22 -41 18
-73 -9z"/>
<path d="M11124 6353 c-20 -60 -60 -127 -95 -156 -38 -33 -50 -57 -29 -57 18
0 101 83 120 120 24 48 34 97 21 105 -6 3 -14 -2 -17 -12z"/>
<path d="M10750 5913 c1 -24 191 -335 209 -341 25 -8 4 41 -75 174 -90 151
-112 184 -125 184 -5 0 -9 -8 -9 -17z"/>
<path d="M10706 5851 c-8 -13 182 -322 202 -329 27 -9 7 36 -80 177 -89 143
-111 171 -122 152z"/>
<path d="M10437 5764 c-3 -3 -3 -13 1 -22 9 -25 190 -334 262 -448 35 -54 70
-111 79 -126 14 -24 51 -40 51 -22 0 11 -374 624 -381 624 -3 0 -8 -3 -12 -6z"/>
<path d="M10370 5703 c0 -18 296 -524 314 -535 21 -13 26 4 10 35 -9 18 -63
109 -119 202 -56 94 -121 203 -144 243 -41 71 -61 89 -61 55z"/>
<path d="M10047 5534 c-9 -9 11 -44 161 -284 158 -254 331 -500 350 -500 16 0
31 -25 -168 275 -92 138 -200 304 -239 370 -76 127 -93 149 -104 139z"/>
<path d="M9990 5459 c0 -23 161 -283 327 -528 145 -216 183 -263 183 -231 0 7
-74 123 -165 259 -90 135 -199 304 -243 375 -72 121 -102 156 -102 125z"/>
<path d="M9700 5223 c0 -25 102 -211 196 -355 142 -220 397 -568 416 -568 21
0 -2 39 -127 210 -161 221 -293 420 -384 580 -40 69 -78 132 -86 140 -13 12
-15 12 -15 -7z"/>
<path d="M9625 5160 c-15 -25 332 -566 551 -859 36 -48 64 -65 64 -40 0 6 -42
68 -94 138 -110 148 -321 466 -424 638 -77 128 -86 140 -97 123z"/>
<path d="M9460 4532 c0 -11 155 -238 264 -387 185 -254 217 -295 226 -290 15
10 4 27 -239 367 -198 278 -251 344 -251 310z"/>
<path d="M9430 4406 c0 -18 441 -659 458 -664 20 -6 14 20 -16 63 -186 275
-426 615 -433 615 -5 0 -9 -6 -9 -14z"/>
<path d="M6548 6012 c-15 -9 -65 -52 -111 -94 -82 -76 -86 -78 -135 -78 -42 0
-52 3 -57 20 -9 29 -46 25 -110 -11 -36 -20 -95 -40 -168 -55 -131 -29 -322
-84 -391 -113 -26 -12 -61 -21 -77 -21 -17 0 -32 -6 -35 -15 -3 -8 -50 -38
-103 -66 -81 -42 -142 -83 -285 -193 -7 -5 -30 4 -61 23 -93 59 -115 37 -115
-118 0 -97 -1 -100 -44 -182 -55 -105 -74 -163 -84 -261 -19 -183 39 -378 159
-529 l29 -37 -35 -76 c-19 -43 -35 -84 -35 -92 0 -17 26 -17 140 0 l85 12 90
-61 c115 -79 196 -123 318 -174 231 -96 470 -154 731 -180 94 -10 100 -11 126
-43 l27 -32 32 32 c32 31 34 32 124 32 105 0 396 31 505 55 40 8 88 15 106 15
17 0 36 4 41 9 6 5 50 22 100 36 49 15 133 45 185 66 l94 39 73 -15 c77 -16
116 -19 126 -9 3 4 -3 29 -13 58 -11 28 -20 52 -20 53 0 1 33 25 74 52 227
154 368 333 426 543 11 40 20 85 20 100 0 19 17 46 55 89 30 34 55 69 55 79 0
24 -23 42 -77 60 -42 15 -46 19 -73 87 -34 88 -65 142 -131 228 -42 56 -48 68
-39 86 6 11 10 32 8 47 -3 26 -6 27 -66 30 -59 3 -68 7 -141 60 -43 31 -98 69
-123 83 -45 27 -45 27 -52 94 -4 37 -11 76 -17 86 -14 28 -55 23 -134 -14
l-70 -34 -95 32 c-52 18 -131 41 -174 51 l-79 19 -53 83 c-34 52 -60 82 -71
82 -21 0 -50 -19 -117 -75 l-48 -39 -87 3 c-47 1 -90 6 -94 10 -5 5 -17 41
-27 80 -17 67 -34 101 -49 101 -3 0 -18 -8 -33 -18z m25 -59 c5 -8 62 -273 74
-339 l5 -31 -153 -6 c-85 -4 -173 -11 -196 -15 l-41 -9 -6 41 c-8 52 -1 85 21
108 56 55 279 257 285 258 4 0 9 -3 11 -7z m503 -180 c43 -71 90 -147 106
-170 15 -23 28 -46 28 -51 0 -5 -28 -26 -61 -46 -43 -26 -65 -34 -73 -26 -27
22 -157 63 -256 81 -57 11 -107 22 -111 27 -3 4 -9 19 -13 33 -5 25 7 37 147
153 83 69 153 126 154 126 0 0 36 -57 79 -127z m-873 -5 c3 -29 6 -92 6 -139
l1 -87 -47 -11 c-76 -19 -176 -59 -227 -91 -26 -17 -52 -30 -59 -30 -14 0
-167 117 -167 128 0 11 462 282 481 282 4 0 9 -24 12 -52z m548 22 c11 0 19
-4 19 -8 0 -10 -82 -73 -88 -68 -8 9 -19 75 -13 81 3 4 19 4 35 1 16 -3 37 -6
47 -6z m-474 -17 c-9 -9 -19 -14 -23 -11 -10 10 6 28 24 28 15 0 15 -1 -1 -17z
m-447 -101 c-52 -32 -113 -69 -135 -82 l-41 -23 -37 24 c-20 13 -37 27 -37 30
0 13 281 107 325 108 11 1 -23 -25 -75 -57z m1467 16 c57 -17 103 -34 103 -37
0 -3 -32 -23 -71 -43 l-70 -37 -44 69 c-25 37 -45 71 -45 74 0 11 24 6 127
-26z m347 -5 c3 -10 10 -61 15 -114 6 -53 17 -131 26 -174 8 -43 14 -79 12
-80 -8 -7 -139 -46 -142 -43 -2 2 -9 52 -15 111 -12 120 -15 133 -36 141 -26
10 -55 -12 -176 -132 l-116 -115 -7 47 c-4 26 -18 63 -31 82 -13 19 -24 37
-24 39 0 3 319 178 435 239 39 20 53 20 59 -1z m-1985 -178 c75 -52 147 -103
160 -114 l24 -18 -24 -33 c-23 -30 -24 -39 -23 -171 1 -76 4 -150 8 -164 4
-14 3 -25 -2 -25 -5 0 -84 50 -177 111 l-167 110 6 102 c4 56 12 148 18 205 9
85 13 102 26 97 8 -3 76 -48 151 -100z m-224 -12 c-13 -143 -24 -246 -28 -249
-2 -3 -25 7 -50 22 -55 30 -87 26 -87 -12 0 -13 -2 -24 -5 -24 -3 0 -39 25
-80 56 -60 45 -73 59 -64 70 33 40 284 204 312 204 4 0 5 -30 2 -67z m1365 26
c153 -22 316 -97 347 -159 9 -19 9 -29 -3 -52 -8 -15 -16 -28 -18 -28 -2 0
-28 11 -57 24 -79 36 -214 73 -332 90 -292 44 -593 -13 -782 -149 l-63 -45
-26 31 c-32 37 -32 48 -4 85 129 166 557 259 938 203z m998 -61 c42 -29 81
-56 86 -60 6 -4 8 -9 5 -12 -11 -12 -139 -54 -143 -48 -10 19 -37 172 -30 172
3 0 39 -24 82 -52z m-303 -75 c4 -49 10 -144 13 -212 l7 -124 -163 -109 c-90
-60 -166 -107 -169 -104 -3 2 2 33 11 68 10 35 20 123 23 196 l6 133 126 119
c69 66 129 120 132 120 4 0 10 -39 14 -87z m-2487 -25 c26 -17 99 -71 163
-119 112 -84 116 -89 122 -131 3 -24 9 -51 12 -59 4 -10 -45 -73 -142 -182
-133 -151 -148 -166 -155 -145 -8 24 -40 278 -59 465 -10 100 -6 203 7 203 3
0 26 -14 52 -32z m1772 -14 c102 -18 300 -82 300 -98 0 -18 -125 -90 -214
-123 -272 -100 -622 -93 -864 18 l-67 31 35 29 c54 47 185 105 286 129 177 41
339 45 524 14z m1228 -36 c-12 -29 -65 -182 -117 -340 -53 -158 -99 -290 -103
-294 -5 -4 -33 10 -63 31 -65 44 -64 40 -36 240 11 76 15 139 10 152 -13 34
-44 38 -93 9 l-44 -25 -5 57 c-2 31 0 62 4 68 18 23 395 152 446 154 l23 0
-22 -52z m-838 -183 c0 -62 -5 -138 -11 -167 -16 -81 -16 -80 -38 -66 -15 9
-23 9 -35 -1 -15 -13 -65 -101 -141 -249 -31 -61 -57 -92 -78 -92 -2 0 -7 35
-10 78 -12 151 -15 150 -252 -8 -204 -135 -218 -142 -270 -135 -24 4 -50 12
-58 19 -8 6 -26 61 -42 121 -34 136 -50 175 -70 175 -8 0 -45 -38 -82 -85
l-67 -85 -22 21 c-42 39 -81 130 -99 231 -10 61 -24 105 -36 119 -15 18 -19
38 -19 101 l0 79 29 -21 c79 -55 227 -108 386 -136 165 -29 415 -11 580 42 95
31 236 102 285 143 19 17 38 30 43 31 4 0 7 -52 7 -115z m932 39 c43 -63 104
-191 95 -200 -2 -2 -58 8 -125 23 l-121 26 31 81 c16 45 35 96 41 114 6 18 15
31 21 29 6 -2 32 -35 58 -73z m-2535 -89 l202 -130 -156 -157 c-86 -86 -160
-155 -165 -152 -4 3 -8 14 -8 25 0 11 -24 129 -54 262 -78 349 -73 314 -45
296 13 -8 115 -73 226 -144z m-643 -60 c3 -46 15 -148 26 -225 l21 -140 -22
-29 c-12 -16 -19 -34 -15 -39 3 -6 40 -17 81 -27 41 -9 75 -20 75 -24 0 -5
-23 -50 -52 -101 l-52 -93 -27 33 c-114 136 -168 379 -123 554 17 68 63 176
74 176 4 0 10 -38 14 -85z m2731 3 c-4 -35 -13 -106 -20 -158 -8 -52 -19 -149
-26 -215 -7 -66 -14 -122 -15 -124 -2 -2 -60 27 -131 65 -70 37 -150 79 -177
93 -45 24 -86 70 -86 97 0 7 91 71 203 144 111 73 211 138 222 146 34 22 37
16 30 -48z m-2291 -215 c20 -93 39 -177 42 -189 4 -16 -4 -29 -34 -53 l-40
-31 -154 36 c-84 20 -158 39 -165 43 -18 10 281 361 308 361 3 0 23 -75 43
-167z m2774 116 c97 -22 181 -44 185 -49 9 -8 -308 -350 -325 -350 -5 0 -45
25 -88 55 -75 53 -78 57 -70 83 5 15 28 85 50 156 44 141 47 146 61 146 6 0
90 -18 187 -41z m-2293 -11 c3 -13 21 -108 40 -211 l36 -188 -21 -30 c-24 -33
-25 -33 -153 -20 -51 6 -146 15 -212 22 -66 6 -128 15 -138 18 -14 5 2 23 75
89 51 45 151 141 222 212 71 72 133 130 137 130 5 0 11 -10 14 -22z m1305
-149 c67 -123 181 -372 173 -379 -4 -4 -78 -22 -163 -39 -85 -17 -183 -37
-218 -45 -34 -7 -64 -10 -67 -8 -3 3 -5 30 -5 60 0 50 9 72 112 268 62 118
117 213 123 211 5 -2 26 -32 45 -68z m-950 -161 c17 -73 47 -185 67 -248 19
-63 37 -123 40 -133 5 -16 1 -18 -28 -13 -19 3 -131 15 -249 27 -118 12 -217
23 -219 25 -15 13 323 474 348 474 5 0 23 -60 41 -132z m614 -15 c19 -311 25
-457 20 -462 -8 -8 -95 24 -204 75 -112 53 -310 165 -310 176 0 12 92 76 255
180 204 128 219 138 226 138 3 0 9 -48 13 -107z m1033 -25 c133 -92 178 -127
172 -131 -108 -83 -296 -213 -324 -224 -11 -4 -26 17 -55 81 -46 99 -47 107
-21 150 11 19 21 61 25 106 4 41 10 92 13 113 l6 37 33 -25 c18 -14 86 -62
151 -107z m373 99 c0 -2 -7 -28 -16 -58 -52 -175 -195 -354 -394 -494 -35 -25
-67 -45 -71 -45 -4 0 -12 12 -17 28 -5 15 -13 35 -17 44 -5 13 9 28 67 65 107
69 239 162 271 191 31 30 34 48 10 74 -16 17 -12 23 68 107 73 77 99 100 99
88z m-780 -110 c58 -31 113 -62 124 -70 18 -13 6 -28 -170 -226 l-189 -213 -7
128 c-5 91 -4 130 4 135 6 4 38 12 72 19 66 13 106 33 106 54 0 7 -25 68 -55
134 -30 67 -55 124 -55 127 0 4 15 -2 33 -13 17 -11 79 -44 137 -75z m-1473
63 c13 -20 8 -50 -8 -50 -5 0 -9 9 -9 19 0 11 -3 26 -6 35 -9 23 9 20 23 -4z
m-722 -105 c44 -10 87 -24 95 -31 8 -6 25 -15 38 -18 12 -4 22 -14 22 -22 0
-21 -59 -227 -68 -235 -4 -3 -79 -14 -167 -23 -88 -10 -172 -20 -188 -23 l-27
-6 16 39 c34 81 179 344 189 340 6 -2 46 -11 90 -21z m1065 -65 c0 -5 -7 -10
-15 -10 -8 0 -15 5 -15 10 0 6 7 10 15 10 8 0 15 -4 15 -10z m-635 -16 c88
-10 162 -18 164 -20 2 -2 -14 -31 -36 -66 -22 -35 -42 -71 -46 -80 -9 -24 29
-48 75 -48 21 0 38 -4 38 -8 0 -4 -17 -25 -38 -45 l-39 -38 -204 -24 c-261
-32 -242 -32 -234 8 7 31 37 136 76 270 24 79 4 75 244 51z m1907 -116 c51
-111 151 -359 146 -363 -2 -2 -89 13 -193 34 -105 21 -207 42 -227 45 -21 4
-38 11 -38 16 0 8 279 320 286 320 1 0 13 -24 26 -52z m-1179 -43 c41 -25 127
-70 191 -101 108 -52 116 -58 104 -75 -7 -10 -67 -92 -133 -182 -66 -89 -127
-174 -136 -187 -16 -25 -16 -25 -78 100 -33 69 -79 172 -100 230 l-40 105 72
5 c89 6 92 15 42 133 -10 24 -4 22 78 -28z m750 -142 c4 -91 7 -194 7 -229 l0
-62 -36 9 c-89 25 -396 159 -409 178 -3 6 4 25 16 42 17 24 26 29 43 23 11 -4
39 -7 61 -8 l40 -1 3 82 c3 76 5 83 25 88 38 10 211 43 228 44 14 1 17 -22 22
-166z m-1070 59 l68 -7 54 -130 c30 -71 52 -131 50 -134 -3 -2 -90 1 -193 7
-103 7 -218 13 -257 13 -123 1 -123 -1 11 141 119 125 119 126 159 121 22 -3
71 -8 108 -11z m-768 -64 c-4 -18 -11 -37 -15 -42 -9 -9 -100 42 -100 56 0 6
33 12 98 16 22 2 23 -1 17 -30z m371 -119 c-31 -34 -56 -68 -56 -76 0 -7 -4
-13 -8 -13 -26 0 -238 98 -229 106 2 2 73 13 158 24 85 11 161 22 169 23 27 6
23 -1 -34 -64z m1662 -24 c57 -14 112 -25 123 -25 30 0 22 -17 -13 -30 -72
-26 -195 -67 -220 -73 -25 -7 -26 -6 -33 52 -7 61 4 101 28 101 7 0 58 -11
115 -25z m-562 -46 c60 -28 143 -64 184 -81 41 -16 79 -33 83 -37 13 -13 -191
-41 -371 -53 -90 -5 -166 -7 -169 -5 -3 4 157 227 163 227 1 0 50 -23 110 -51z
m-768 -54 c123 -8 232 -15 243 -15 13 0 27 -16 45 -51 l26 -52 -75 7 c-127 11
-306 45 -444 83 -197 54 -194 54 205 28z"/>
<path d="M2070 5934 c-14 -7 -36 -13 -50 -14 -14 0 -42 -8 -61 -18 l-36 -18
-32 28 c-17 15 -38 28 -46 28 -8 0 -32 -16 -54 -35 -21 -19 -56 -41 -77 -48
-33 -11 -44 -23 -69 -73 -20 -40 -40 -63 -60 -73 -16 -7 -41 -19 -55 -25 -16
-7 -30 -26 -38 -51 -18 -54 -46 -81 -96 -94 -110 -27 -100 -120 30 -279 21
-25 24 -36 16 -44 -21 -21 -13 -66 39 -205 61 -165 77 -197 182 -373 143 -241
203 -330 661 -980 256 -363 584 -785 729 -936 84 -89 166 -140 239 -150 40 -6
47 -11 68 -51 13 -25 35 -52 48 -61 21 -14 26 -14 58 1 19 10 50 17 69 17 40
0 70 27 79 71 5 28 8 29 60 29 47 0 57 4 75 26 12 15 21 33 21 40 0 7 15 23
33 35 44 31 47 37 47 96 0 44 3 53 21 58 11 4 27 22 35 40 11 27 17 32 39 27
18 -3 37 3 58 19 25 18 45 23 100 23 63 1 71 4 93 29 17 20 24 40 24 68 0 32
4 41 25 51 27 12 39 38 30 67 -4 13 4 26 30 45 22 17 35 35 35 50 0 26 -64
116 -82 116 -9 0 -9 3 0 12 7 7 12 22 12 34 0 43 -118 241 -483 809 -319 496
-475 723 -655 950 -301 379 -468 545 -645 639 -66 35 -97 38 -97 10 0 -8 -4
-14 -10 -14 -5 0 -10 18 -10 41 0 79 -19 89 -180 94 -67 2 -103 -1 -120 -11z
m156 -38 c46 -1 88 -6 93 -12 5 -5 11 -56 14 -113 l6 -103 -22 8 c-12 4 -61 8
-110 9 l-87 1 -36 43 c-36 41 -99 81 -129 81 -39 0 13 60 53 61 15 0 47 8 72
18 25 11 49 16 54 14 4 -3 46 -6 92 -7z m-346 -36 c27 -38 21 -56 -21 -65 -43
-10 -115 -78 -147 -140 -27 -53 -34 -135 -13 -173 9 -16 3 -27 -34 -65 -31
-32 -49 -63 -60 -101 -16 -53 -16 -53 -62 -60 -26 -3 -51 -2 -58 4 -6 5 -38
47 -69 94 -72 105 -72 122 3 148 69 23 96 48 110 104 9 35 16 45 39 50 57 14
80 34 107 89 21 46 34 59 68 74 23 10 53 30 66 45 32 34 45 33 71 -4z m612
-101 c171 -100 400 -347 729 -784 93 -123 445 -641 561 -825 273 -433 428
-693 428 -720 0 -25 -370 11 -579 56 -555 119 -881 260 -1111 480 -233 223
-325 558 -275 999 17 148 54 369 89 524 30 132 84 301 96 301 5 0 33 -14 62
-31z m-506 -15 c19 -9 46 -30 60 -47 l26 -31 -23 -16 c-49 -31 -106 -91 -123
-127 l-17 -38 -81 0 c-72 0 -82 2 -89 20 -39 99 73 253 184 255 16 0 44 -7 63
-16z m284 -105 c29 -6 50 -16 50 -24 0 -10 -19 -12 -85 -8 -77 5 -89 4 -140
-22 -50 -24 -103 -77 -118 -118 -3 -9 -7 -9 -17 0 -10 9 -6 20 16 54 36 54 98
98 161 115 61 16 71 16 133 3z m8 -75 c26 -7 27 -11 6 -101 l-16 -70 -49 -6
c-27 -3 -69 -15 -94 -26 -44 -19 -44 -19 -50 0 -4 11 -20 35 -36 53 l-29 33
29 40 c49 68 151 100 239 77z m-378 -125 c95 -22 150 -89 150 -185 0 -28 -2
-53 -5 -56 -3 -2 -38 4 -78 14 -92 23 -241 48 -289 48 -45 0 -48 13 -19 76 21
47 70 88 121 102 46 13 66 14 120 1z m356 -106 c-2 -10 -10 -52 -16 -93 -18
-118 -11 -111 -83 -85 l-62 23 3 54 c4 64 16 78 85 100 69 21 79 22 73 1z
m-534 -123 c112 -11 311 -57 416 -96 l74 -27 -6 -51 c-3 -28 -8 -132 -12 -231
-10 -275 22 -443 123 -638 85 -164 169 -256 335 -368 178 -119 391 -211 645
-279 l83 -22 -5 -52 c-2 -28 -7 -85 -10 -126 -12 -161 -74 -391 -150 -558 -21
-45 -44 -82 -51 -82 -19 0 -129 123 -307 345 -407 507 -1020 1389 -1231 1768
-49 89 -148 353 -144 386 5 40 65 48 240 31z m2038 -1798 c22 -7 25 -13 24
-53 -5 -139 -162 -279 -314 -279 -94 0 -94 0 -75 106 8 49 18 136 22 195 l6
105 156 -33 c86 -19 167 -37 181 -41z m205 -22 c49 -6 93 -16 97 -23 12 -18 9
-69 -5 -93 -19 -34 -123 -124 -143 -124 -31 0 -126 63 -120 80 2 8 12 33 20
55 8 22 15 57 16 78 0 43 -3 42 135 27z m268 -56 c71 -58 76 -71 37 -102 -23
-18 -30 -31 -30 -57 0 -27 -6 -39 -27 -52 -39 -24 -44 -34 -38 -66 9 -53 -8
-67 -82 -67 -49 0 -74 -5 -100 -21 l-34 -22 -33 32 c-31 30 -32 33 -22 76 8
33 16 45 33 50 13 3 54 35 93 71 75 71 96 114 84 173 -6 30 -5 31 29 31 26 0
48 -11 90 -46z m-413 -192 c50 -48 52 -77 8 -119 -70 -65 -90 -64 -150 10
l-36 43 54 42 c30 23 54 46 54 52 0 21 31 9 70 -28z m-186 -126 l36 -44 -35
-69 c-47 -89 -104 -146 -189 -189 -54 -27 -81 -34 -125 -34 -82 0 -86 5 -55
78 24 55 29 60 47 50 31 -16 81 -3 173 47 102 56 125 89 107 155 -8 33 -8 50
2 50 2 0 19 -20 39 -44z m-137 21 c29 7 52 -19 53 -58 0 -33 -10 -41 -106 -90
-74 -38 -117 -48 -128 -30 -3 4 6 44 20 87 14 44 27 84 29 90 2 8 19 9 56 3
29 -5 63 -6 76 -2z m377 -73 c13 -33 5 -56 -31 -89 -31 -28 -37 -41 -38 -77
-3 -66 -3 -66 -35 -83 -17 -9 -38 -32 -48 -53 -16 -33 -21 -37 -52 -35 -65 5
-78 -3 -92 -55 -13 -45 -15 -47 -58 -53 -25 -4 -55 -10 -66 -14 -17 -5 -26 0
-43 23 -11 17 -21 32 -21 35 0 3 24 13 53 21 68 20 160 80 215 140 42 45 102
155 102 186 0 8 22 27 48 42 56 32 58 32 66 12z m-159 -51 c-14 -60 -51 -121
-109 -179 -71 -70 -151 -113 -229 -121 -55 -6 -157 12 -157 27 0 4 37 5 83 3
76 -5 87 -3 150 25 89 41 177 125 219 209 32 65 55 84 43 36z"/>
<path d="M2687 5153 c-9 -8 -9 -56 -1 -77 9 -24 31 -19 50 9 22 34 12 75 -20
75 -12 0 -26 -3 -29 -7z m40 -47 c-4 -9 -11 -16 -17 -16 -11 0 -14 33 -3 43
11 11 26 -10 20 -27z"/>
<path d="M2510 4841 c-15 -29 -12 -81 5 -87 31 -12 72 49 60 87 -8 25 -51 25
-65 0z m41 -33 c-4 -12 -13 -24 -19 -26 -15 -5 -15 31 0 46 17 17 28 5 19 -20z"/>
<path d="M3071 4678 c-11 -29 4 -58 29 -58 21 0 37 38 26 65 -9 23 -45 18 -55
-7z m39 -12 c0 -17 -14 -29 -23 -20 -8 8 3 34 14 34 5 0 9 -6 9 -14z"/>
<path d="M2738 4395 c-17 -38 0 -80 32 -80 18 0 27 8 34 27 13 36 -6 78 -34
78 -12 0 -25 -10 -32 -25z m46 -11 c8 -20 -2 -54 -14 -54 -11 0 -17 29 -12 53
5 22 18 22 26 1z"/>
<path d="M3282 4248 c-24 -24 -12 -88 17 -88 22 0 44 40 39 71 -3 27 -36 37
-56 17z m38 -25 c0 -10 -4 -25 -10 -33 -8 -12 -10 -12 -16 3 -7 20 1 47 16 47
5 0 10 -8 10 -17z"/>
<path d="M2844 3875 c-12 -49 37 -75 58 -31 15 33 4 56 -26 56 -19 0 -27 -7
-32 -25z m46 -2 c-1 -18 -18 -35 -24 -24 -4 6 -4 16 -1 21 7 12 25 13 25 3z"/>
<path d="M3679 3839 c-28 -28 -23 -83 8 -87 41 -6 75 87 37 102 -22 8 -22 8
-45 -15z m41 -20 c0 -17 -20 -49 -30 -49 -14 0 -12 34 2 48 15 15 28 15 28 1z"/>
<path d="M3334 3705 c-12 -46 35 -75 56 -35 16 30 3 60 -25 60 -18 0 -26 -7
-31 -25z m46 -2 c-1 -18 -18 -35 -24 -24 -4 6 -4 16 -1 21 7 12 25 13 25 3z"/>
<path d="M1934 5706 c-7 -18 20 -66 37 -66 6 0 9 16 7 37 -3 40 -32 59 -44 29z"/>
<path d="M1857 5673 c-20 -19 13 -73 45 -73 13 0 9 34 -8 58 -16 23 -26 27
-37 15z"/>
<path d="M1780 5586 c0 -18 38 -46 62 -46 24 0 23 12 -5 38 -27 25 -57 29 -57
8z"/>
<path d="M1740 5365 c-15 -18 -7 -57 16 -80 14 -13 19 -14 25 -3 14 21 10 65
-7 82 -19 19 -19 19 -34 1z"/>
<path d="M1844 5354 c-9 -35 12 -80 30 -65 16 13 26 58 19 78 -9 23 -42 15
-49 -13z"/>
<path d="M1951 5331 c-14 -25 -14 -58 -1 -66 15 -9 52 34 48 58 -4 29 -34 34
-47 8z"/>
<path d="M1905 4926 c-23 -34 -16 -80 12 -84 28 -4 56 36 51 75 -4 38 -41 44
-63 9z m45 -12 c0 -21 -18 -54 -30 -54 -13 0 -13 26 0 51 13 23 30 25 30 3z"/>
<path d="M1997 4514 c-4 -4 -7 -27 -7 -51 0 -36 3 -43 20 -43 41 0 56 92 15
98 -12 2 -24 0 -28 -4z m28 -62 c-6 -16 -7 -16 -16 1 -8 13 -7 23 3 34 12 15
13 15 16 -1 2 -9 1 -25 -3 -34z"/>
<path d="M2214 4065 c-8 -34 1 -55 26 -55 28 0 48 43 30 65 -20 24 -49 18 -56
-10z m32 -32 c-11 -11 -19 6 -11 24 8 17 8 17 12 0 3 -10 2 -21 -1 -24z"/>
<path d="M2682 3558 c-17 -17 -15 -73 3 -88 37 -30 71 17 52 73 -9 28 -35 35
-55 15z m38 -49 c0 -16 -4 -29 -10 -29 -12 0 -24 45 -15 60 11 18 25 1 25 -31z"/>
<path d="M3117 3193 c-10 -9 -8 -66 2 -82 21 -33 69 28 56 70 -6 19 -44 26
-58 12z m40 -47 c-4 -9 -11 -16 -17 -16 -11 0 -14 33 -3 44 11 10 26 -11 20
-28z"/>
<path d="M3610 3392 c0 -19 47 -52 74 -52 27 0 20 45 -9 58 -38 18 -65 15 -65
-6z"/>
<path d="M3540 3320 c0 -23 31 -69 50 -75 45 -14 55 32 14 64 -28 22 -64 28
-64 11z"/>
<path d="M3467 3283 c-9 -8 -9 -66 -1 -87 3 -9 17 -16 30 -16 20 0 24 5 24 33
0 47 -33 91 -53 70z"/>
<path d="M11450 5211 c-163 -32 -277 -199 -250 -366 30 -187 194 -307 374
-274 77 13 131 45 189 109 131 146 99 381 -66 486 -67 44 -164 61 -247 45z
m174 -61 c102 -38 176 -149 176 -261 0 -51 -33 -136 -70 -181 -74 -89 -222
-119 -326 -65 -67 34 -130 106 -149 170 -19 63 -19 91 0 154 48 163 209 242
369 183z"/>
<path d="M11455 5031 c-132 -60 -111 -258 31 -301 82 -25 183 39 200 125 15
79 -36 163 -112 184 -53 15 -72 14 -119 -8z m110 -31 c7 0 27 -14 44 -31 26
-26 31 -38 31 -81 0 -41 -5 -54 -29 -78 -36 -37 -72 -46 -121 -31 -73 22 -101
107 -57 172 22 34 79 62 105 53 8 -2 20 -4 27 -4z"/>
<path d="M12732 4834 c-5 -11 -12 -46 -15 -79 -2 -33 -18 -98 -33 -143 l-29
-84 -60 -2 c-81 -3 -161 -41 -236 -113 -96 -91 -159 -217 -159 -317 0 -76
-161 -341 -292 -481 -95 -102 -168 -149 -264 -171 -179 -39 -386 45 -462 190
-25 48 -27 59 -27 181 0 72 -4 136 -8 143 -5 6 -22 12 -39 12 -25 0 -42 -11
-78 -48 -111 -115 -136 -276 -74 -472 67 -213 281 -392 534 -446 265 -56 605
90 846 364 91 104 196 259 261 388 32 63 54 94 65 94 67 0 186 289 176 425 -6
71 -35 143 -74 182 l-27 27 26 45 c58 104 107 288 81 304 -5 3 -30 8 -56 12
-39 6 -48 4 -56 -11z m71 -41 c12 -21 -71 -250 -98 -273 -7 -6 3 34 21 87 19
54 37 119 40 146 6 43 24 62 37 40z m-107 -343 c73 -46 107 -155 86 -272 -14
-74 -69 -212 -93 -234 -11 -10 -20 -15 -22 -13 -1 2 -9 18 -18 34 -14 28 -19
30 -67 28 -51 -2 -52 -2 -52 25 0 51 -20 66 -79 59 l-51 -6 -15 36 c-15 35
-16 35 -58 29 -23 -4 -52 -9 -64 -12 -21 -6 -21 -4 -11 33 37 138 160 272 288
314 39 13 118 2 156 -21z m-345 -387 c14 -38 25 -43 81 -36 46 5 48 5 48 -18
0 -13 3 -35 7 -48 6 -22 9 -23 64 -17 l57 7 7 -31 c6 -26 -4 -50 -60 -154 -98
-178 -185 -296 -310 -421 -215 -214 -445 -318 -670 -302 -233 16 -448 154
-544 348 -75 151 -85 293 -32 415 21 47 89 126 104 121 5 -1 10 -58 11 -132 1
-121 3 -134 28 -181 49 -92 170 -180 299 -214 57 -16 172 -16 229 -1 56 15
162 78 216 128 92 85 207 245 312 433 49 88 62 105 92 116 49 17 49 17 61 -13z"/>
<path d="M7250 3190 c-716 -49 -1277 -370 -1431 -817 -60 -177 -41 -382 55
-573 154 -308 538 -575 1015 -706 253 -69 521 -100 781 -90 257 10 436 38 649
102 468 142 808 431 898 764 25 92 24 282 -1 370 -93 319 -402 610 -826 778
-231 91 -520 155 -785 172 -154 11 -200 10 -355 0z m550 -75 c291 -44 495
-107 732 -227 148 -75 268 -160 378 -268 183 -180 270 -368 270 -583 0 -309
-220 -591 -605 -777 -189 -91 -374 -145 -645 -187 -163 -25 -540 -25 -700 0
-367 57 -717 188 -949 354 -641 459 -572 1127 154 1498 210 107 477 178 790
209 87 9 475 -4 575 -19z"/>
<path d="M7457 3030 c-51 -34 -61 -38 -83 -28 -18 9 -34 9 -57 1 -33 -11 -208
-10 -285 2 -39 7 -47 4 -90 -30 -41 -32 -51 -35 -82 -29 -69 15 -89 9 -139
-40 -44 -44 -50 -46 -103 -46 -67 0 -83 -14 -75 -65 5 -30 3 -35 -13 -35 -27
0 -160 -116 -160 -140 0 -10 -18 -40 -40 -65 -22 -25 -40 -55 -40 -65 0 -11
-13 -35 -30 -53 -69 -79 -20 -126 184 -177 92 -24 111 -32 110 -47 -1 -10 -7
-58 -12 -106 -24 -195 21 -326 148 -433 14 -11 39 -41 57 -67 70 -101 202
-176 345 -196 80 -11 132 -7 307 24 131 23 171 16 361 -68 97 -43 127 -51 190
-55 206 -11 427 106 609 324 136 163 158 229 126 379 -9 44 -21 129 -25 188
-13 161 -50 214 -209 291 -78 38 -106 58 -123 89 -8 15 -4 26 20 51 72 77 80
119 31 160 -17 14 -48 29 -70 32 -30 5 -47 16 -66 40 -21 28 -32 34 -64 34
-39 0 -42 3 -95 63 -10 12 -22 16 -32 11 -51 -21 -64 -18 -107 30 -53 57 -87
61 -140 15 -34 -30 -36 -31 -55 -14 -16 14 -30 17 -70 12 -46 -6 -53 -3 -84
23 -44 40 -70 38 -139 -10z m121 -35 c24 -20 41 -25 86 -25 39 0 56 -4 56 -13
0 -7 -15 -58 -33 -112 l-34 -100 -39 2 c-21 2 -106 4 -189 5 -243 3 -403 -39
-565 -148 -68 -45 -85 -53 -95 -42 -53 57 -175 225 -173 237 3 12 16 16 56 16
50 0 55 3 96 48 l44 47 69 -6 c67 -6 71 -5 104 23 44 39 57 42 100 27 25 -8
74 -11 150 -8 63 3 137 4 165 4 43 -1 57 4 95 34 53 42 68 44 107 11z m342
-35 c44 -52 70 -61 112 -39 19 10 25 7 51 -25 25 -31 34 -36 73 -36 38 0 45
-4 58 -29 14 -27 59 -51 94 -51 18 0 52 -29 52 -44 0 -6 -17 -31 -38 -55 l-38
-44 -47 21 c-90 40 -219 52 -340 32 -52 -8 -68 -6 -130 15 -81 27 -80 23 -39
124 26 67 113 181 136 181 8 0 33 -22 56 -50z m-1260 -337 c41 -53 76 -100 78
-105 2 -4 -18 -32 -45 -62 -27 -30 -64 -84 -83 -119 l-34 -64 -114 29 c-168
43 -200 62 -163 102 11 12 26 37 32 56 7 19 27 52 46 73 18 21 33 48 33 62 0
18 11 32 40 50 22 14 40 29 40 33 0 12 53 41 75 41 13 0 45 -32 95 -96z m953
72 c174 -30 251 -71 449 -238 143 -119 186 -150 286 -202 169 -89 222 -227
147 -381 -50 -102 -189 -216 -314 -255 -129 -41 -341 -24 -585 47 -85 24 -216
18 -357 -17 -199 -50 -325 -42 -468 31 -120 61 -182 165 -189 317 -8 176 48
329 166 454 128 137 312 228 507 252 80 10 280 6 358 -8z m582 -69 c22 -9 65
-43 96 -75 37 -37 85 -72 139 -100 98 -51 155 -100 169 -144 5 -18 12 -70 16
-117 4 -47 15 -129 25 -183 27 -138 19 -166 -76 -293 -73 -97 -197 -213 -280
-262 -112 -66 -182 -86 -304 -86 -102 -1 -107 0 -175 36 -166 86 -288 104
-461 68 -217 -45 -418 0 -525 116 l-24 27 25 -7 c151 -44 260 -44 425 -1 172
45 222 44 425 -6 167 -41 182 -43 320 -43 125 0 154 3 210 23 90 32 167 81
244 155 86 83 118 151 124 262 4 72 2 86 -22 132 -37 73 -94 125 -196 178 -61
31 -139 87 -256 184 -92 77 -172 140 -176 140 -4 0 -8 5 -8 11 0 19 236 6 285
-15z"/>
<path d="M7407 2280 c-200 -51 -259 -244 -102 -335 165 -97 404 -50 467 91 16
38 17 49 7 84 -15 49 -81 113 -146 142 -51 23 -169 32 -226 18z m219 -62 c59
-27 114 -89 114 -128 0 -40 -49 -93 -115 -125 -120 -56 -318 -15 -355 75 -34
83 38 175 160 201 52 11 147 0 196 -23z"/>
<path d="M6308 2269 c-21 -12 -23 -51 -7 -133 11 -52 10 -58 -8 -79 -35 -38
-46 -70 -47 -135 -1 -53 3 -67 20 -80 11 -10 26 -39 34 -67 31 -116 111 -236
214 -325 156 -133 360 -206 427 -151 20 16 22 22 12 43 -6 13 -35 36 -64 52
-134 72 -252 197 -331 354 -35 68 -43 95 -43 141 -1 31 -5 67 -9 81 -13 41
-52 86 -89 103 -34 16 -34 18 -41 99 -9 103 -23 124 -68 97z m34 -136 c2 -23
0 -39 -4 -37 -5 3 -7 29 -7 57 1 56 6 48 11 -20z m84 -125 c17 -16 36 -45 42
-65 10 -34 10 -35 -14 -30 -16 3 -28 -1 -33 -11 -8 -14 -11 -14 -26 -2 -15 12
-19 12 -29 0 -6 -8 -26 -15 -43 -16 -32 -1 -33 0 -33 43 0 74 41 129 85 117
11 -4 34 -19 51 -36z m54 -190 c22 -73 68 -153 141 -249 75 -98 141 -158 223
-198 36 -18 66 -37 66 -43 0 -20 -108 -1 -175 31 -204 95 -368 281 -400 454
-6 33 -5 37 13 37 12 0 24 5 27 10 3 6 17 7 30 4 12 -3 26 -1 30 6 13 21 27 4
45 -52z"/>
<path d="M5172 3180 c-34 -14 -196 -137 -278 -211 -259 -234 -795 -781 -843
-860 -26 -42 -26 -76 -2 -112 30 -46 77 -80 251 -178 351 -197 566 -286 712
-296 75 -6 77 -5 107 24 35 35 40 53 85 293 77 410 123 888 114 1183 -3 116
-4 119 -31 143 -29 25 -73 30 -115 14z m83 -50 c44 -49 27 -424 -44 -965 -42
-315 -78 -511 -105 -564 -9 -17 -27 -33 -41 -37 -95 -24 -406 100 -758 302
-163 94 -227 146 -227 186 0 36 74 120 376 427 396 403 617 602 727 651 52 24
50 24 72 0z"/>
<path d="M5076 2862 c-3 -6 1 -13 10 -16 24 -9 54 -7 54 4 0 6 -6 10 -14 10
-8 0 -21 3 -29 6 -8 3 -18 1 -21 -4z"/>
<path d="M5045 2591 c-3 -6 3 -15 14 -20 24 -14 31 -14 31 -1 0 14 -38 32 -45
21z"/>
<path d="M4690 2541 c0 -6 10 -17 22 -26 28 -19 39 0 12 20 -22 17 -34 19 -34
6z"/>
<path d="M4875 2301 c-3 -6 3 -15 14 -20 24 -14 31 -14 31 -1 0 14 -38 32 -45
21z"/>
<path d="M4340 2066 c0 -13 20 -26 41 -26 18 0 8 17 -16 28 -20 9 -25 9 -25
-2z"/>
<path d="M5040 2040 c0 -5 7 -10 15 -10 8 0 18 0 22 -1 4 0 9 4 11 10 2 6 -8
11 -22 11 -14 0 -26 -4 -26 -10z"/>
<path d="M4710 1971 c0 -12 39 -25 48 -16 7 7 -17 25 -35 25 -7 0 -13 -4 -13
-9z"/>
<path d="M4950 1704 c0 -8 11 -14 25 -14 14 0 25 4 25 9 0 5 -11 11 -25 13
-17 4 -25 1 -25 -8z"/>
<path d="M10184 2831 c-95 -42 -212 -378 -329 -947 -41 -200 -41 -239 1 -281
22 -22 32 -25 74 -21 42 4 96 33 367 195 175 104 415 243 533 308 349 191 410
238 410 313 0 70 -82 118 -463 268 -336 133 -537 189 -593 165z m224 -76 c68
-19 173 -56 235 -81 62 -26 176 -73 254 -105 244 -100 293 -130 293 -180 0
-47 -123 -128 -497 -327 -168 -90 -358 -200 -578 -337 -60 -37 -129 -77 -153
-87 -41 -18 -45 -19 -69 -3 -25 16 -25 20 -20 84 3 36 27 161 52 276 93 430
172 671 250 764 36 42 76 41 233 -4z"/>
<path d="M10335 2650 c-3 -5 8 -16 25 -25 24 -13 30 -13 30 -2 0 17 -47 40
-55 27z"/>
<path d="M10750 2441 c0 -12 39 -25 48 -16 7 7 -17 25 -35 25 -7 0 -13 -4 -13
-9z"/>
<path d="M10470 2401 c0 -13 29 -35 37 -28 7 8 -15 37 -28 37 -5 0 -9 -4 -9
-9z"/>
<path d="M10160 2290 c0 -12 40 -34 47 -26 9 8 -17 36 -33 36 -8 0 -14 -4 -14
-10z"/>
<path d="M10445 2101 c-6 -11 33 -36 42 -27 7 7 -16 36 -28 36 -4 0 -10 -4
-14 -9z"/>
<path d="M10086 1931 c-7 -10 19 -41 35 -41 15 0 10 16 -10 34 -11 10 -21 13
-25 7z"/>
</g>
</svg>
